<?xml version="1.0" encoding="utf-8" standalone="no"?>
<!DOCTYPE svg PUBLIC "-//W3C//DTD SVG 1.1//EN"
  "http://www.w3.org/Graphics/SVG/1.1/DTD/svg11.dtd">
<svg xmlns:xlink="http://www.w3.org/1999/xlink" width="460.8pt" height="345.6pt" viewBox="0 0 460.8 345.6" xmlns="http://www.w3.org/2000/svg" version="1.1">
 <metadata>
  <rdf:RDF xmlns:dc="http://purl.org/dc/elements/1.1/" xmlns:cc="http://creativecommons.org/ns#" xmlns:rdf="http://www.w3.org/1999/02/22-rdf-syntax-ns#">
   <cc:Work>
    <dc:type rdf:resource="http://purl.org/dc/dcmitype/StillImage"/>
    <dc:date>2025-05-11T17:56:49.150146</dc:date>
    <dc:format>image/svg+xml</dc:format>
    <dc:creator>
     <cc:Agent>
      <dc:title>Matplotlib v3.6.3, https://matplotlib.org/</dc:title>
     </cc:Agent>
    </dc:creator>
   </cc:Work>
  </rdf:RDF>
 </metadata>
 <defs>
  <style type="text/css">*{stroke-linejoin: round; stroke-linecap: butt}</style>
 </defs>
 <g id="figure_1">
  <g id="patch_1">
   <path d="M 0 345.6 
L 460.8 345.6 
L 460.8 0 
L 0 0 
z
" style="fill: #ffffff"/>
  </g>
  <g id="axes_1">
   <g id="patch_2">
    <path d="M 57.6 307.584 
L 414.72 307.584 
L 414.72 41.472 
L 57.6 41.472 
z
" style="fill: #ffffff"/>
   </g>
   <g id="patch_3">
    <path d="M 73.832727 307.584 
L 76.095128 307.584 
L 76.095128 54.144 
L 73.832727 54.144 
z
" clip-path="url(#p6b8a7bc2db)" style="fill: #1f77b4"/>
   </g>
   <g id="patch_4">
    <path d="M 76.660729 307.584 
L 78.92313 307.584 
L 78.92313 203.421487 
L 76.660729 203.421487 
z
" clip-path="url(#p6b8a7bc2db)" style="fill: #1f77b4"/>
   </g>
   <g id="patch_5">
    <path d="M 79.48873 307.584 
L 81.751131 307.584 
L 81.751131 236.594262 
L 79.48873 236.594262 
z
" clip-path="url(#p6b8a7bc2db)" style="fill: #1f77b4"/>
   </g>
   <g id="patch_6">
    <path d="M 82.316731 307.584 
L 84.579132 307.584 
L 84.579132 261.142115 
L 82.316731 261.142115 
z
" clip-path="url(#p6b8a7bc2db)" style="fill: #1f77b4"/>
   </g>
   <g id="patch_7">
    <path d="M 85.144732 307.584 
L 87.407133 307.584 
L 87.407133 269.767037 
L 85.144732 269.767037 
z
" clip-path="url(#p6b8a7bc2db)" style="fill: #1f77b4"/>
   </g>
   <g id="patch_8">
    <path d="M 87.972734 307.584 
L 90.235135 307.584 
L 90.235135 275.074681 
L 87.972734 275.074681 
z
" clip-path="url(#p6b8a7bc2db)" style="fill: #1f77b4"/>
   </g>
   <g id="patch_9">
    <path d="M 90.800735 307.584 
L 93.063136 307.584 
L 93.063136 284.363058 
L 90.800735 284.363058 
z
" clip-path="url(#p6b8a7bc2db)" style="fill: #1f77b4"/>
   </g>
   <g id="patch_10">
    <path d="M 93.628736 307.584 
L 95.891137 307.584 
L 95.891137 283.036147 
L 93.628736 283.036147 
z
" clip-path="url(#p6b8a7bc2db)" style="fill: #1f77b4"/>
   </g>
   <g id="patch_11">
    <path d="M 96.456737 307.584 
L 98.719138 307.584 
L 98.719138 290.334157 
L 96.456737 290.334157 
z
" clip-path="url(#p6b8a7bc2db)" style="fill: #1f77b4"/>
   </g>
   <g id="patch_12">
    <path d="M 99.284739 307.584 
L 101.54714 307.584 
L 101.54714 289.007246 
L 99.284739 289.007246 
z
" clip-path="url(#p6b8a7bc2db)" style="fill: #1f77b4"/>
   </g>
   <g id="patch_13">
    <path d="M 102.11274 307.584 
L 104.375141 307.584 
L 104.375141 295.641801 
L 102.11274 295.641801 
z
" clip-path="url(#p6b8a7bc2db)" style="fill: #1f77b4"/>
   </g>
   <g id="patch_14">
    <path d="M 104.940741 307.584 
L 107.203142 307.584 
L 107.203142 298.295623 
L 104.940741 298.295623 
z
" clip-path="url(#p6b8a7bc2db)" style="fill: #1f77b4"/>
   </g>
   <g id="patch_15">
    <path d="M 107.768742 307.584 
L 110.031143 307.584 
L 110.031143 299.622534 
L 107.768742 299.622534 
z
" clip-path="url(#p6b8a7bc2db)" style="fill: #1f77b4"/>
   </g>
   <g id="patch_16">
    <path d="M 110.596744 307.584 
L 112.859145 307.584 
L 112.859145 297.632168 
L 110.596744 297.632168 
z
" clip-path="url(#p6b8a7bc2db)" style="fill: #1f77b4"/>
   </g>
   <g id="patch_17">
    <path d="M 113.424745 307.584 
L 115.687146 307.584 
L 115.687146 296.968712 
L 113.424745 296.968712 
z
" clip-path="url(#p6b8a7bc2db)" style="fill: #1f77b4"/>
   </g>
   <g id="patch_18">
    <path d="M 116.252746 307.584 
L 118.515147 307.584 
L 118.515147 300.949445 
L 116.252746 300.949445 
z
" clip-path="url(#p6b8a7bc2db)" style="fill: #1f77b4"/>
   </g>
   <g id="patch_19">
    <path d="M 119.080748 307.584 
L 121.343149 307.584 
L 121.343149 296.305257 
L 119.080748 296.305257 
z
" clip-path="url(#p6b8a7bc2db)" style="fill: #1f77b4"/>
   </g>
   <g id="patch_20">
    <path d="M 121.908749 307.584 
L 124.17115 307.584 
L 124.17115 298.959079 
L 121.908749 298.959079 
z
" clip-path="url(#p6b8a7bc2db)" style="fill: #1f77b4"/>
   </g>
   <g id="patch_21">
    <path d="M 124.73675 307.584 
L 126.999151 307.584 
L 126.999151 296.305257 
L 124.73675 296.305257 
z
" clip-path="url(#p6b8a7bc2db)" style="fill: #1f77b4"/>
   </g>
   <g id="patch_22">
    <path d="M 127.564751 307.584 
L 129.827152 307.584 
L 129.827152 300.28599 
L 127.564751 300.28599 
z
" clip-path="url(#p6b8a7bc2db)" style="fill: #1f77b4"/>
   </g>
   <g id="patch_23">
    <path d="M 130.392753 307.584 
L 132.655154 307.584 
L 132.655154 298.295623 
L 130.392753 298.295623 
z
" clip-path="url(#p6b8a7bc2db)" style="fill: #1f77b4"/>
   </g>
   <g id="patch_24">
    <path d="M 133.220754 307.584 
L 135.483155 307.584 
L 135.483155 297.632168 
L 133.220754 297.632168 
z
" clip-path="url(#p6b8a7bc2db)" style="fill: #1f77b4"/>
   </g>
   <g id="patch_25">
    <path d="M 136.048755 307.584 
L 138.311156 307.584 
L 138.311156 297.632168 
L 136.048755 297.632168 
z
" clip-path="url(#p6b8a7bc2db)" style="fill: #1f77b4"/>
   </g>
   <g id="patch_26">
    <path d="M 138.876756 307.584 
L 141.139157 307.584 
L 141.139157 298.295623 
L 138.876756 298.295623 
z
" clip-path="url(#p6b8a7bc2db)" style="fill: #1f77b4"/>
   </g>
   <g id="patch_27">
    <path d="M 141.704758 307.584 
L 143.967159 307.584 
L 143.967159 301.612901 
L 141.704758 301.612901 
z
" clip-path="url(#p6b8a7bc2db)" style="fill: #1f77b4"/>
   </g>
   <g id="patch_28">
    <path d="M 144.532759 307.584 
L 146.79516 307.584 
L 146.79516 302.939812 
L 144.532759 302.939812 
z
" clip-path="url(#p6b8a7bc2db)" style="fill: #1f77b4"/>
   </g>
   <g id="patch_29">
    <path d="M 147.36076 307.584 
L 149.623161 307.584 
L 149.623161 302.939812 
L 147.36076 302.939812 
z
" clip-path="url(#p6b8a7bc2db)" style="fill: #1f77b4"/>
   </g>
   <g id="patch_30">
    <path d="M 150.188761 307.584 
L 152.451162 307.584 
L 152.451162 304.930178 
L 150.188761 304.930178 
z
" clip-path="url(#p6b8a7bc2db)" style="fill: #1f77b4"/>
   </g>
   <g id="patch_31">
    <path d="M 153.016763 307.584 
L 155.279164 307.584 
L 155.279164 304.266723 
L 153.016763 304.266723 
z
" clip-path="url(#p6b8a7bc2db)" style="fill: #1f77b4"/>
   </g>
   <g id="patch_32">
    <path d="M 155.844764 307.584 
L 158.107165 307.584 
L 158.107165 302.939812 
L 155.844764 302.939812 
z
" clip-path="url(#p6b8a7bc2db)" style="fill: #1f77b4"/>
   </g>
   <g id="patch_33">
    <path d="M 158.672765 307.584 
L 160.935166 307.584 
L 160.935166 301.612901 
L 158.672765 301.612901 
z
" clip-path="url(#p6b8a7bc2db)" style="fill: #1f77b4"/>
   </g>
   <g id="patch_34">
    <path d="M 161.500767 307.584 
L 163.763168 307.584 
L 163.763168 298.959079 
L 161.500767 298.959079 
z
" clip-path="url(#p6b8a7bc2db)" style="fill: #1f77b4"/>
   </g>
   <g id="patch_35">
    <path d="M 164.328768 307.584 
L 166.591169 307.584 
L 166.591169 300.949445 
L 164.328768 300.949445 
z
" clip-path="url(#p6b8a7bc2db)" style="fill: #1f77b4"/>
   </g>
   <g id="patch_36">
    <path d="M 167.156769 307.584 
L 169.41917 307.584 
L 169.41917 303.603267 
L 167.156769 303.603267 
z
" clip-path="url(#p6b8a7bc2db)" style="fill: #1f77b4"/>
   </g>
   <g id="patch_37">
    <path d="M 169.98477 307.584 
L 172.247171 307.584 
L 172.247171 302.939812 
L 169.98477 302.939812 
z
" clip-path="url(#p6b8a7bc2db)" style="fill: #1f77b4"/>
   </g>
   <g id="patch_38">
    <path d="M 172.812772 307.584 
L 175.075173 307.584 
L 175.075173 301.612901 
L 172.812772 301.612901 
z
" clip-path="url(#p6b8a7bc2db)" style="fill: #1f77b4"/>
   </g>
   <g id="patch_39">
    <path d="M 175.640773 307.584 
L 177.903174 307.584 
L 177.903174 304.266723 
L 175.640773 304.266723 
z
" clip-path="url(#p6b8a7bc2db)" style="fill: #1f77b4"/>
   </g>
   <g id="patch_40">
    <path d="M 178.468774 307.584 
L 180.731175 307.584 
L 180.731175 302.276356 
L 178.468774 302.276356 
z
" clip-path="url(#p6b8a7bc2db)" style="fill: #1f77b4"/>
   </g>
   <g id="patch_41">
    <path d="M 181.296775 307.584 
L 183.559176 307.584 
L 183.559176 303.603267 
L 181.296775 303.603267 
z
" clip-path="url(#p6b8a7bc2db)" style="fill: #1f77b4"/>
   </g>
   <g id="patch_42">
    <path d="M 184.124777 307.584 
L 186.387178 307.584 
L 186.387178 304.930178 
L 184.124777 304.930178 
z
" clip-path="url(#p6b8a7bc2db)" style="fill: #1f77b4"/>
   </g>
   <g id="patch_43">
    <path d="M 186.952778 307.584 
L 189.215179 307.584 
L 189.215179 304.266723 
L 186.952778 304.266723 
z
" clip-path="url(#p6b8a7bc2db)" style="fill: #1f77b4"/>
   </g>
   <g id="patch_44">
    <path d="M 189.780779 307.584 
L 192.04318 307.584 
L 192.04318 304.266723 
L 189.780779 304.266723 
z
" clip-path="url(#p6b8a7bc2db)" style="fill: #1f77b4"/>
   </g>
   <g id="patch_45">
    <path d="M 192.60878 307.584 
L 194.871182 307.584 
L 194.871182 305.593634 
L 192.60878 305.593634 
z
" clip-path="url(#p6b8a7bc2db)" style="fill: #1f77b4"/>
   </g>
   <g id="patch_46">
    <path d="M 195.436782 307.584 
L 197.699183 307.584 
L 197.699183 302.276356 
L 195.436782 302.276356 
z
" clip-path="url(#p6b8a7bc2db)" style="fill: #1f77b4"/>
   </g>
   <g id="patch_47">
    <path d="M 198.264783 307.584 
L 200.527184 307.584 
L 200.527184 304.266723 
L 198.264783 304.266723 
z
" clip-path="url(#p6b8a7bc2db)" style="fill: #1f77b4"/>
   </g>
   <g id="patch_48">
    <path d="M 201.092784 307.584 
L 203.355185 307.584 
L 203.355185 302.939812 
L 201.092784 302.939812 
z
" clip-path="url(#p6b8a7bc2db)" style="fill: #1f77b4"/>
   </g>
   <g id="patch_49">
    <path d="M 203.920786 307.584 
L 206.183187 307.584 
L 206.183187 304.266723 
L 203.920786 304.266723 
z
" clip-path="url(#p6b8a7bc2db)" style="fill: #1f77b4"/>
   </g>
   <g id="patch_50">
    <path d="M 206.748787 307.584 
L 209.011188 307.584 
L 209.011188 304.930178 
L 206.748787 304.930178 
z
" clip-path="url(#p6b8a7bc2db)" style="fill: #1f77b4"/>
   </g>
   <g id="patch_51">
    <path d="M 209.576788 307.584 
L 211.839189 307.584 
L 211.839189 304.266723 
L 209.576788 304.266723 
z
" clip-path="url(#p6b8a7bc2db)" style="fill: #1f77b4"/>
   </g>
   <g id="patch_52">
    <path d="M 212.404789 307.584 
L 214.66719 307.584 
L 214.66719 306.920545 
L 212.404789 306.920545 
z
" clip-path="url(#p6b8a7bc2db)" style="fill: #1f77b4"/>
   </g>
   <g id="patch_53">
    <path d="M 215.232791 307.584 
L 217.495192 307.584 
L 217.495192 304.266723 
L 215.232791 304.266723 
z
" clip-path="url(#p6b8a7bc2db)" style="fill: #1f77b4"/>
   </g>
   <g id="patch_54">
    <path d="M 218.060792 307.584 
L 220.323193 307.584 
L 220.323193 305.593634 
L 218.060792 305.593634 
z
" clip-path="url(#p6b8a7bc2db)" style="fill: #1f77b4"/>
   </g>
   <g id="patch_55">
    <path d="M 220.888793 307.584 
L 223.151194 307.584 
L 223.151194 300.28599 
L 220.888793 300.28599 
z
" clip-path="url(#p6b8a7bc2db)" style="fill: #1f77b4"/>
   </g>
   <g id="patch_56">
    <path d="M 223.716794 307.584 
L 225.979195 307.584 
L 225.979195 303.603267 
L 223.716794 303.603267 
z
" clip-path="url(#p6b8a7bc2db)" style="fill: #1f77b4"/>
   </g>
   <g id="patch_57">
    <path d="M 226.544796 307.584 
L 228.807197 307.584 
L 228.807197 304.266723 
L 226.544796 304.266723 
z
" clip-path="url(#p6b8a7bc2db)" style="fill: #1f77b4"/>
   </g>
   <g id="patch_58">
    <path d="M 229.372797 307.584 
L 231.635198 307.584 
L 231.635198 304.930178 
L 229.372797 304.930178 
z
" clip-path="url(#p6b8a7bc2db)" style="fill: #1f77b4"/>
   </g>
   <g id="patch_59">
    <path d="M 232.200798 307.584 
L 234.463199 307.584 
L 234.463199 306.257089 
L 232.200798 306.257089 
z
" clip-path="url(#p6b8a7bc2db)" style="fill: #1f77b4"/>
   </g>
   <g id="patch_60">
    <path d="M 235.028799 307.584 
L 237.291201 307.584 
L 237.291201 302.939812 
L 235.028799 302.939812 
z
" clip-path="url(#p6b8a7bc2db)" style="fill: #1f77b4"/>
   </g>
   <g id="patch_61">
    <path d="M 237.856801 307.584 
L 240.119202 307.584 
L 240.119202 304.266723 
L 237.856801 304.266723 
z
" clip-path="url(#p6b8a7bc2db)" style="fill: #1f77b4"/>
   </g>
   <g id="patch_62">
    <path d="M 240.684802 307.584 
L 242.947203 307.584 
L 242.947203 305.593634 
L 240.684802 305.593634 
z
" clip-path="url(#p6b8a7bc2db)" style="fill: #1f77b4"/>
   </g>
   <g id="patch_63">
    <path d="M 243.512803 307.584 
L 245.775204 307.584 
L 245.775204 304.930178 
L 243.512803 304.930178 
z
" clip-path="url(#p6b8a7bc2db)" style="fill: #1f77b4"/>
   </g>
   <g id="patch_64">
    <path d="M 246.340805 307.584 
L 248.603206 307.584 
L 248.603206 302.276356 
L 246.340805 302.276356 
z
" clip-path="url(#p6b8a7bc2db)" style="fill: #1f77b4"/>
   </g>
   <g id="patch_65">
    <path d="M 249.168806 307.584 
L 251.431207 307.584 
L 251.431207 305.593634 
L 249.168806 305.593634 
z
" clip-path="url(#p6b8a7bc2db)" style="fill: #1f77b4"/>
   </g>
   <g id="patch_66">
    <path d="M 251.996807 307.584 
L 254.259208 307.584 
L 254.259208 305.593634 
L 251.996807 305.593634 
z
" clip-path="url(#p6b8a7bc2db)" style="fill: #1f77b4"/>
   </g>
   <g id="patch_67">
    <path d="M 254.824808 307.584 
L 257.087209 307.584 
L 257.087209 304.266723 
L 254.824808 304.266723 
z
" clip-path="url(#p6b8a7bc2db)" style="fill: #1f77b4"/>
   </g>
   <g id="patch_68">
    <path d="M 257.65281 307.584 
L 259.915211 307.584 
L 259.915211 304.266723 
L 257.65281 304.266723 
z
" clip-path="url(#p6b8a7bc2db)" style="fill: #1f77b4"/>
   </g>
   <g id="patch_69">
    <path d="M 260.480811 307.584 
L 262.743212 307.584 
L 262.743212 304.930178 
L 260.480811 304.930178 
z
" clip-path="url(#p6b8a7bc2db)" style="fill: #1f77b4"/>
   </g>
   <g id="patch_70">
    <path d="M 263.308812 307.584 
L 265.571213 307.584 
L 265.571213 306.257089 
L 263.308812 306.257089 
z
" clip-path="url(#p6b8a7bc2db)" style="fill: #1f77b4"/>
   </g>
   <g id="patch_71">
    <path d="M 266.136813 307.584 
L 268.399214 307.584 
L 268.399214 305.593634 
L 266.136813 305.593634 
z
" clip-path="url(#p6b8a7bc2db)" style="fill: #1f77b4"/>
   </g>
   <g id="patch_72">
    <path d="M 268.964815 307.584 
L 271.227216 307.584 
L 271.227216 304.930178 
L 268.964815 304.930178 
z
" clip-path="url(#p6b8a7bc2db)" style="fill: #1f77b4"/>
   </g>
   <g id="patch_73">
    <path d="M 271.792816 307.584 
L 274.055217 307.584 
L 274.055217 304.266723 
L 271.792816 304.266723 
z
" clip-path="url(#p6b8a7bc2db)" style="fill: #1f77b4"/>
   </g>
   <g id="patch_74">
    <path d="M 274.620817 307.584 
L 276.883218 307.584 
L 276.883218 306.257089 
L 274.620817 306.257089 
z
" clip-path="url(#p6b8a7bc2db)" style="fill: #1f77b4"/>
   </g>
   <g id="patch_75">
    <path d="M 277.448818 307.584 
L 279.71122 307.584 
L 279.71122 306.257089 
L 277.448818 306.257089 
z
" clip-path="url(#p6b8a7bc2db)" style="fill: #1f77b4"/>
   </g>
   <g id="patch_76">
    <path d="M 280.27682 307.584 
L 282.539221 307.584 
L 282.539221 305.593634 
L 280.27682 305.593634 
z
" clip-path="url(#p6b8a7bc2db)" style="fill: #1f77b4"/>
   </g>
   <g id="patch_77">
    <path d="M 283.104821 307.584 
L 285.367222 307.584 
L 285.367222 303.603267 
L 283.104821 303.603267 
z
" clip-path="url(#p6b8a7bc2db)" style="fill: #1f77b4"/>
   </g>
   <g id="patch_78">
    <path d="M 285.932822 307.584 
L 288.195223 307.584 
L 288.195223 305.593634 
L 285.932822 305.593634 
z
" clip-path="url(#p6b8a7bc2db)" style="fill: #1f77b4"/>
   </g>
   <g id="patch_79">
    <path d="M 288.760824 307.584 
L 291.023225 307.584 
L 291.023225 304.930178 
L 288.760824 304.930178 
z
" clip-path="url(#p6b8a7bc2db)" style="fill: #1f77b4"/>
   </g>
   <g id="patch_80">
    <path d="M 291.588825 307.584 
L 293.851226 307.584 
L 293.851226 305.593634 
L 291.588825 305.593634 
z
" clip-path="url(#p6b8a7bc2db)" style="fill: #1f77b4"/>
   </g>
   <g id="patch_81">
    <path d="M 294.416826 307.584 
L 296.679227 307.584 
L 296.679227 305.593634 
L 294.416826 305.593634 
z
" clip-path="url(#p6b8a7bc2db)" style="fill: #1f77b4"/>
   </g>
   <g id="patch_82">
    <path d="M 297.244827 307.584 
L 299.507228 307.584 
L 299.507228 306.257089 
L 297.244827 306.257089 
z
" clip-path="url(#p6b8a7bc2db)" style="fill: #1f77b4"/>
   </g>
   <g id="patch_83">
    <path d="M 300.072829 307.584 
L 302.33523 307.584 
L 302.33523 305.593634 
L 300.072829 305.593634 
z
" clip-path="url(#p6b8a7bc2db)" style="fill: #1f77b4"/>
   </g>
   <g id="patch_84">
    <path d="M 302.90083 307.584 
L 305.163231 307.584 
L 305.163231 305.593634 
L 302.90083 305.593634 
z
" clip-path="url(#p6b8a7bc2db)" style="fill: #1f77b4"/>
   </g>
   <g id="patch_85">
    <path d="M 305.728831 307.584 
L 307.991232 307.584 
L 307.991232 306.257089 
L 305.728831 306.257089 
z
" clip-path="url(#p6b8a7bc2db)" style="fill: #1f77b4"/>
   </g>
   <g id="patch_86">
    <path d="M 308.556832 307.584 
L 310.819233 307.584 
L 310.819233 304.930178 
L 308.556832 304.930178 
z
" clip-path="url(#p6b8a7bc2db)" style="fill: #1f77b4"/>
   </g>
   <g id="patch_87">
    <path d="M 311.384834 307.584 
L 313.647235 307.584 
L 313.647235 305.593634 
L 311.384834 305.593634 
z
" clip-path="url(#p6b8a7bc2db)" style="fill: #1f77b4"/>
   </g>
   <g id="patch_88">
    <path d="M 314.212835 307.584 
L 316.475236 307.584 
L 316.475236 304.266723 
L 314.212835 304.266723 
z
" clip-path="url(#p6b8a7bc2db)" style="fill: #1f77b4"/>
   </g>
   <g id="patch_89">
    <path d="M 317.040836 307.584 
L 319.303237 307.584 
L 319.303237 306.257089 
L 317.040836 306.257089 
z
" clip-path="url(#p6b8a7bc2db)" style="fill: #1f77b4"/>
   </g>
   <g id="patch_90">
    <path d="M 319.868838 307.584 
L 322.131239 307.584 
L 322.131239 303.603267 
L 319.868838 303.603267 
z
" clip-path="url(#p6b8a7bc2db)" style="fill: #1f77b4"/>
   </g>
   <g id="patch_91">
    <path d="M 322.696839 307.584 
L 324.95924 307.584 
L 324.95924 304.930178 
L 322.696839 304.930178 
z
" clip-path="url(#p6b8a7bc2db)" style="fill: #1f77b4"/>
   </g>
   <g id="patch_92">
    <path d="M 325.52484 307.584 
L 327.787241 307.584 
L 327.787241 306.920545 
L 325.52484 306.920545 
z
" clip-path="url(#p6b8a7bc2db)" style="fill: #1f77b4"/>
   </g>
   <g id="patch_93">
    <path d="M 328.352841 307.584 
L 330.615242 307.584 
L 330.615242 304.266723 
L 328.352841 304.266723 
z
" clip-path="url(#p6b8a7bc2db)" style="fill: #1f77b4"/>
   </g>
   <g id="patch_94">
    <path d="M 331.180843 307.584 
L 333.443244 307.584 
L 333.443244 307.584 
L 331.180843 307.584 
z
" clip-path="url(#p6b8a7bc2db)" style="fill: #1f77b4"/>
   </g>
   <g id="patch_95">
    <path d="M 334.008844 307.584 
L 336.271245 307.584 
L 336.271245 306.257089 
L 334.008844 306.257089 
z
" clip-path="url(#p6b8a7bc2db)" style="fill: #1f77b4"/>
   </g>
   <g id="patch_96">
    <path d="M 336.836845 307.584 
L 339.099246 307.584 
L 339.099246 305.593634 
L 336.836845 305.593634 
z
" clip-path="url(#p6b8a7bc2db)" style="fill: #1f77b4"/>
   </g>
   <g id="patch_97">
    <path d="M 339.664846 307.584 
L 341.927247 307.584 
L 341.927247 307.584 
L 339.664846 307.584 
z
" clip-path="url(#p6b8a7bc2db)" style="fill: #1f77b4"/>
   </g>
   <g id="patch_98">
    <path d="M 342.492848 307.584 
L 344.755249 307.584 
L 344.755249 306.920545 
L 342.492848 306.920545 
z
" clip-path="url(#p6b8a7bc2db)" style="fill: #1f77b4"/>
   </g>
   <g id="patch_99">
    <path d="M 345.320849 307.584 
L 347.58325 307.584 
L 347.58325 306.257089 
L 345.320849 306.257089 
z
" clip-path="url(#p6b8a7bc2db)" style="fill: #1f77b4"/>
   </g>
   <g id="patch_100">
    <path d="M 348.14885 307.584 
L 350.411251 307.584 
L 350.411251 307.584 
L 348.14885 307.584 
z
" clip-path="url(#p6b8a7bc2db)" style="fill: #1f77b4"/>
   </g>
   <g id="patch_101">
    <path d="M 350.976851 307.584 
L 353.239252 307.584 
L 353.239252 305.593634 
L 350.976851 305.593634 
z
" clip-path="url(#p6b8a7bc2db)" style="fill: #1f77b4"/>
   </g>
   <g id="patch_102">
    <path d="M 353.804853 307.584 
L 356.067254 307.584 
L 356.067254 306.257089 
L 353.804853 306.257089 
z
" clip-path="url(#p6b8a7bc2db)" style="fill: #1f77b4"/>
   </g>
   <g id="patch_103">
    <path d="M 356.632854 307.584 
L 358.895255 307.584 
L 358.895255 306.257089 
L 356.632854 306.257089 
z
" clip-path="url(#p6b8a7bc2db)" style="fill: #1f77b4"/>
   </g>
   <g id="patch_104">
    <path d="M 359.460855 307.584 
L 361.723256 307.584 
L 361.723256 306.920545 
L 359.460855 306.920545 
z
" clip-path="url(#p6b8a7bc2db)" style="fill: #1f77b4"/>
   </g>
   <g id="patch_105">
    <path d="M 362.288857 307.584 
L 364.551258 307.584 
L 364.551258 306.920545 
L 362.288857 306.920545 
z
" clip-path="url(#p6b8a7bc2db)" style="fill: #1f77b4"/>
   </g>
   <g id="patch_106">
    <path d="M 365.116858 307.584 
L 367.379259 307.584 
L 367.379259 307.584 
L 365.116858 307.584 
z
" clip-path="url(#p6b8a7bc2db)" style="fill: #1f77b4"/>
   </g>
   <g id="patch_107">
    <path d="M 367.944859 307.584 
L 370.20726 307.584 
L 370.20726 307.584 
L 367.944859 307.584 
z
" clip-path="url(#p6b8a7bc2db)" style="fill: #1f77b4"/>
   </g>
   <g id="patch_108">
    <path d="M 370.77286 307.584 
L 373.035261 307.584 
L 373.035261 306.920545 
L 370.77286 306.920545 
z
" clip-path="url(#p6b8a7bc2db)" style="fill: #1f77b4"/>
   </g>
   <g id="patch_109">
    <path d="M 373.600862 307.584 
L 375.863263 307.584 
L 375.863263 306.920545 
L 373.600862 306.920545 
z
" clip-path="url(#p6b8a7bc2db)" style="fill: #1f77b4"/>
   </g>
   <g id="patch_110">
    <path d="M 376.428863 307.584 
L 378.691264 307.584 
L 378.691264 306.920545 
L 376.428863 306.920545 
z
" clip-path="url(#p6b8a7bc2db)" style="fill: #1f77b4"/>
   </g>
   <g id="patch_111">
    <path d="M 379.256864 307.584 
L 381.519265 307.584 
L 381.519265 307.584 
L 379.256864 307.584 
z
" clip-path="url(#p6b8a7bc2db)" style="fill: #1f77b4"/>
   </g>
   <g id="patch_112">
    <path d="M 382.084865 307.584 
L 384.347266 307.584 
L 384.347266 306.920545 
L 382.084865 306.920545 
z
" clip-path="url(#p6b8a7bc2db)" style="fill: #1f77b4"/>
   </g>
   <g id="patch_113">
    <path d="M 384.912867 307.584 
L 387.175268 307.584 
L 387.175268 307.584 
L 384.912867 307.584 
z
" clip-path="url(#p6b8a7bc2db)" style="fill: #1f77b4"/>
   </g>
   <g id="patch_114">
    <path d="M 387.740868 307.584 
L 390.003269 307.584 
L 390.003269 306.920545 
L 387.740868 306.920545 
z
" clip-path="url(#p6b8a7bc2db)" style="fill: #1f77b4"/>
   </g>
   <g id="patch_115">
    <path d="M 390.568869 307.584 
L 392.83127 307.584 
L 392.83127 306.920545 
L 390.568869 306.920545 
z
" clip-path="url(#p6b8a7bc2db)" style="fill: #1f77b4"/>
   </g>
   <g id="patch_116">
    <path d="M 393.39687 307.584 
L 395.659271 307.584 
L 395.659271 306.920545 
L 393.39687 306.920545 
z
" clip-path="url(#p6b8a7bc2db)" style="fill: #1f77b4"/>
   </g>
   <g id="patch_117">
    <path d="M 396.224872 307.584 
L 398.487273 307.584 
L 398.487273 306.920545 
L 396.224872 306.920545 
z
" clip-path="url(#p6b8a7bc2db)" style="fill: #1f77b4"/>
   </g>
   <g id="matplotlib.axis_1">
    <g id="xtick_1">
     <g id="line2d_1">
      <defs>
       <path id="m38b00da8e7" d="M 0 0 
L 0 3.5 
" style="stroke: #000000; stroke-width: 0.8"/>
      </defs>
      <g>
       <use xlink:href="#m38b00da8e7" x="74.963928" y="307.584" style="stroke: #000000; stroke-width: 0.8"/>
      </g>
     </g>
     <g id="text_1">
      <!-- 0 -->
      <g transform="translate(71.782678 322.182437) scale(0.1 -0.1)">
       <defs>
        <path id="DejaVuSans-30" d="M 2034 4250 
Q 1547 4250 1301 3770 
Q 1056 3291 1056 2328 
Q 1056 1369 1301 889 
Q 1547 409 2034 409 
Q 2525 409 2770 889 
Q 3016 1369 3016 2328 
Q 3016 3291 2770 3770 
Q 2525 4250 2034 4250 
z
M 2034 4750 
Q 2819 4750 3233 4129 
Q 3647 3509 3647 2328 
Q 3647 1150 3233 529 
Q 2819 -91 2034 -91 
Q 1250 -91 836 529 
Q 422 1150 422 2328 
Q 422 3509 836 4129 
Q 1250 4750 2034 4750 
z
" transform="scale(0.015625)"/>
       </defs>
       <use xlink:href="#DejaVuSans-30"/>
      </g>
     </g>
    </g>
    <g id="xtick_2">
     <g id="line2d_2">
      <g>
       <use xlink:href="#m38b00da8e7" x="131.523953" y="307.584" style="stroke: #000000; stroke-width: 0.8"/>
      </g>
     </g>
     <g id="text_2">
      <!-- 20 -->
      <g transform="translate(125.161453 322.182437) scale(0.1 -0.1)">
       <defs>
        <path id="DejaVuSans-32" d="M 1228 531 
L 3431 531 
L 3431 0 
L 469 0 
L 469 531 
Q 828 903 1448 1529 
Q 2069 2156 2228 2338 
Q 2531 2678 2651 2914 
Q 2772 3150 2772 3378 
Q 2772 3750 2511 3984 
Q 2250 4219 1831 4219 
Q 1534 4219 1204 4116 
Q 875 4013 500 3803 
L 500 4441 
Q 881 4594 1212 4672 
Q 1544 4750 1819 4750 
Q 2544 4750 2975 4387 
Q 3406 4025 3406 3419 
Q 3406 3131 3298 2873 
Q 3191 2616 2906 2266 
Q 2828 2175 2409 1742 
Q 1991 1309 1228 531 
z
" transform="scale(0.015625)"/>
       </defs>
       <use xlink:href="#DejaVuSans-32"/>
       <use xlink:href="#DejaVuSans-30" x="63.623047"/>
      </g>
     </g>
    </g>
    <g id="xtick_3">
     <g id="line2d_3">
      <g>
       <use xlink:href="#m38b00da8e7" x="188.083978" y="307.584" style="stroke: #000000; stroke-width: 0.8"/>
      </g>
     </g>
     <g id="text_3">
      <!-- 40 -->
      <g transform="translate(181.721478 322.182437) scale(0.1 -0.1)">
       <defs>
        <path id="DejaVuSans-34" d="M 2419 4116 
L 825 1625 
L 2419 1625 
L 2419 4116 
z
M 2253 4666 
L 3047 4666 
L 3047 1625 
L 3713 1625 
L 3713 1100 
L 3047 1100 
L 3047 0 
L 2419 0 
L 2419 1100 
L 313 1100 
L 313 1709 
L 2253 4666 
z
" transform="scale(0.015625)"/>
       </defs>
       <use xlink:href="#DejaVuSans-34"/>
       <use xlink:href="#DejaVuSans-30" x="63.623047"/>
      </g>
     </g>
    </g>
    <g id="xtick_4">
     <g id="line2d_4">
      <g>
       <use xlink:href="#m38b00da8e7" x="244.644004" y="307.584" style="stroke: #000000; stroke-width: 0.8"/>
      </g>
     </g>
     <g id="text_4">
      <!-- 60 -->
      <g transform="translate(238.281504 322.182437) scale(0.1 -0.1)">
       <defs>
        <path id="DejaVuSans-36" d="M 2113 2584 
Q 1688 2584 1439 2293 
Q 1191 2003 1191 1497 
Q 1191 994 1439 701 
Q 1688 409 2113 409 
Q 2538 409 2786 701 
Q 3034 994 3034 1497 
Q 3034 2003 2786 2293 
Q 2538 2584 2113 2584 
z
M 3366 4563 
L 3366 3988 
Q 3128 4100 2886 4159 
Q 2644 4219 2406 4219 
Q 1781 4219 1451 3797 
Q 1122 3375 1075 2522 
Q 1259 2794 1537 2939 
Q 1816 3084 2150 3084 
Q 2853 3084 3261 2657 
Q 3669 2231 3669 1497 
Q 3669 778 3244 343 
Q 2819 -91 2113 -91 
Q 1303 -91 875 529 
Q 447 1150 447 2328 
Q 447 3434 972 4092 
Q 1497 4750 2381 4750 
Q 2619 4750 2861 4703 
Q 3103 4656 3366 4563 
z
" transform="scale(0.015625)"/>
       </defs>
       <use xlink:href="#DejaVuSans-36"/>
       <use xlink:href="#DejaVuSans-30" x="63.623047"/>
      </g>
     </g>
    </g>
    <g id="xtick_5">
     <g id="line2d_5">
      <g>
       <use xlink:href="#m38b00da8e7" x="301.204029" y="307.584" style="stroke: #000000; stroke-width: 0.8"/>
      </g>
     </g>
     <g id="text_5">
      <!-- 80 -->
      <g transform="translate(294.841529 322.182437) scale(0.1 -0.1)">
       <defs>
        <path id="DejaVuSans-38" d="M 2034 2216 
Q 1584 2216 1326 1975 
Q 1069 1734 1069 1313 
Q 1069 891 1326 650 
Q 1584 409 2034 409 
Q 2484 409 2743 651 
Q 3003 894 3003 1313 
Q 3003 1734 2745 1975 
Q 2488 2216 2034 2216 
z
M 1403 2484 
Q 997 2584 770 2862 
Q 544 3141 544 3541 
Q 544 4100 942 4425 
Q 1341 4750 2034 4750 
Q 2731 4750 3128 4425 
Q 3525 4100 3525 3541 
Q 3525 3141 3298 2862 
Q 3072 2584 2669 2484 
Q 3125 2378 3379 2068 
Q 3634 1759 3634 1313 
Q 3634 634 3220 271 
Q 2806 -91 2034 -91 
Q 1263 -91 848 271 
Q 434 634 434 1313 
Q 434 1759 690 2068 
Q 947 2378 1403 2484 
z
M 1172 3481 
Q 1172 3119 1398 2916 
Q 1625 2713 2034 2713 
Q 2441 2713 2670 2916 
Q 2900 3119 2900 3481 
Q 2900 3844 2670 4047 
Q 2441 4250 2034 4250 
Q 1625 4250 1398 4047 
Q 1172 3844 1172 3481 
z
" transform="scale(0.015625)"/>
       </defs>
       <use xlink:href="#DejaVuSans-38"/>
       <use xlink:href="#DejaVuSans-30" x="63.623047"/>
      </g>
     </g>
    </g>
    <g id="xtick_6">
     <g id="line2d_6">
      <g>
       <use xlink:href="#m38b00da8e7" x="357.764054" y="307.584" style="stroke: #000000; stroke-width: 0.8"/>
      </g>
     </g>
     <g id="text_6">
      <!-- 100 -->
      <g transform="translate(348.220304 322.182437) scale(0.1 -0.1)">
       <defs>
        <path id="DejaVuSans-31" d="M 794 531 
L 1825 531 
L 1825 4091 
L 703 3866 
L 703 4441 
L 1819 4666 
L 2450 4666 
L 2450 531 
L 3481 531 
L 3481 0 
L 794 0 
L 794 531 
z
" transform="scale(0.015625)"/>
       </defs>
       <use xlink:href="#DejaVuSans-31"/>
       <use xlink:href="#DejaVuSans-30" x="63.623047"/>
       <use xlink:href="#DejaVuSans-30" x="127.246094"/>
      </g>
     </g>
    </g>
    <g id="xtick_7">
     <g id="line2d_7">
      <g>
       <use xlink:href="#m38b00da8e7" x="414.32408" y="307.584" style="stroke: #000000; stroke-width: 0.8"/>
      </g>
     </g>
     <g id="text_7">
      <!-- 120 -->
      <g transform="translate(404.78033 322.182437) scale(0.1 -0.1)">
       <use xlink:href="#DejaVuSans-31"/>
       <use xlink:href="#DejaVuSans-32" x="63.623047"/>
       <use xlink:href="#DejaVuSans-30" x="127.246094"/>
      </g>
     </g>
    </g>
    <g id="text_8">
     <!-- Размер бакета -->
     <g transform="translate(197.589687 336.030875) scale(0.1 -0.1)">
      <defs>
       <path id="DejaVuSans-420" d="M 1259 4147 
L 1259 2394 
L 2053 2394 
Q 2494 2394 2734 2622 
Q 2975 2850 2975 3272 
Q 2975 3691 2734 3919 
Q 2494 4147 2053 4147 
L 1259 4147 
z
M 628 4666 
L 2053 4666 
Q 2838 4666 3239 4311 
Q 3641 3956 3641 3272 
Q 3641 2581 3239 2228 
Q 2838 1875 2053 1875 
L 1259 1875 
L 1259 0 
L 628 0 
L 628 4666 
z
" transform="scale(0.015625)"/>
       <path id="DejaVuSans-430" d="M 2194 1759 
Q 1497 1759 1228 1600 
Q 959 1441 959 1056 
Q 959 750 1161 570 
Q 1363 391 1709 391 
Q 2188 391 2477 730 
Q 2766 1069 2766 1631 
L 2766 1759 
L 2194 1759 
z
M 3341 1997 
L 3341 0 
L 2766 0 
L 2766 531 
Q 2569 213 2275 61 
Q 1981 -91 1556 -91 
Q 1019 -91 701 211 
Q 384 513 384 1019 
Q 384 1609 779 1909 
Q 1175 2209 1959 2209 
L 2766 2209 
L 2766 2266 
Q 2766 2663 2505 2880 
Q 2244 3097 1772 3097 
Q 1472 3097 1187 3025 
Q 903 2953 641 2809 
L 641 3341 
Q 956 3463 1253 3523 
Q 1550 3584 1831 3584 
Q 2591 3584 2966 3190 
Q 3341 2797 3341 1997 
z
" transform="scale(0.015625)"/>
       <path id="DejaVuSans-437" d="M 2206 1888 
Q 2594 1813 2809 1584 
Q 3025 1356 3025 1019 
Q 3025 478 2622 193 
Q 2219 -91 1475 -91 
Q 1225 -91 961 -47 
Q 697 -3 416 84 
L 416 619 
Q 638 503 903 445 
Q 1169 388 1459 388 
Q 1931 388 2195 563 
Q 2459 738 2459 1019 
Q 2459 1294 2225 1461 
Q 1991 1628 1563 1628 
L 1100 1628 
L 1100 2103 
L 1584 2103 
Q 1947 2103 2158 2242 
Q 2369 2381 2369 2600 
Q 2369 2800 2151 2944 
Q 1934 3088 1563 3088 
Q 1341 3088 1089 3047 
Q 838 3006 534 2916 
L 534 3438 
Q 841 3513 1106 3550 
Q 1372 3588 1609 3588 
Q 2222 3588 2576 3342 
Q 2931 3097 2931 2656 
Q 2931 2366 2743 2164 
Q 2556 1963 2206 1888 
z
" transform="scale(0.015625)"/>
       <path id="DejaVuSans-43c" d="M 581 3500 
L 1422 3500 
L 2416 1156 
L 3413 3500 
L 4247 3500 
L 4247 0 
L 3669 0 
L 3669 2950 
L 2703 672 
L 2128 672 
L 1159 2950 
L 1159 0 
L 581 0 
L 581 3500 
z
" transform="scale(0.015625)"/>
       <path id="DejaVuSans-435" d="M 3597 1894 
L 3597 1613 
L 953 1613 
Q 991 1019 1311 708 
Q 1631 397 2203 397 
Q 2534 397 2845 478 
Q 3156 559 3463 722 
L 3463 178 
Q 3153 47 2828 -22 
Q 2503 -91 2169 -91 
Q 1331 -91 842 396 
Q 353 884 353 1716 
Q 353 2575 817 3079 
Q 1281 3584 2069 3584 
Q 2775 3584 3186 3129 
Q 3597 2675 3597 1894 
z
M 3022 2063 
Q 3016 2534 2758 2815 
Q 2500 3097 2075 3097 
Q 1594 3097 1305 2825 
Q 1016 2553 972 2059 
L 3022 2063 
z
" transform="scale(0.015625)"/>
       <path id="DejaVuSans-440" d="M 1159 525 
L 1159 -1331 
L 581 -1331 
L 581 3500 
L 1159 3500 
L 1159 2969 
Q 1341 3281 1617 3432 
Q 1894 3584 2278 3584 
Q 2916 3584 3314 3078 
Q 3713 2572 3713 1747 
Q 3713 922 3314 415 
Q 2916 -91 2278 -91 
Q 1894 -91 1617 61 
Q 1341 213 1159 525 
z
M 3116 1747 
Q 3116 2381 2855 2742 
Q 2594 3103 2138 3103 
Q 1681 3103 1420 2742 
Q 1159 2381 1159 1747 
Q 1159 1113 1420 752 
Q 1681 391 2138 391 
Q 2594 391 2855 752 
Q 3116 1113 3116 1747 
z
" transform="scale(0.015625)"/>
       <path id="DejaVuSans-20" transform="scale(0.015625)"/>
       <path id="DejaVuSans-431" d="M 1991 3584 
Q 2741 3584 3169 3096 
Q 3597 2609 3597 1747 
Q 3597 888 3169 398 
Q 2741 -91 1991 -91 
Q 1238 -91 822 384 
Q 406 859 384 1747 
L 366 2463 
Q 350 2834 350 2963 
Q 350 3463 531 3831 
Q 816 4409 1308 4659 
Q 1800 4909 2625 4916 
Q 3006 4919 3175 4972 
L 3334 4516 
Q 3181 4453 3041 4450 
L 2259 4397 
Q 1866 4369 1628 4231 
Q 1006 3866 947 3388 
L 925 3213 
Q 1331 3584 1991 3584 
z
M 1991 3097 
Q 1528 3097 1259 2736 
Q 991 2375 991 1747 
Q 991 1119 1258 758 
Q 1525 397 1991 397 
Q 2450 397 2719 759 
Q 2988 1122 2988 1747 
Q 2988 2369 2719 2733 
Q 2450 3097 1991 3097 
z
" transform="scale(0.015625)"/>
       <path id="DejaVuSans-43a" d="M 581 3500 
L 1153 3500 
L 1153 1856 
L 2775 3500 
L 3481 3500 
L 2144 2147 
L 3653 0 
L 3009 0 
L 1769 1766 
L 1153 1141 
L 1153 0 
L 581 0 
L 581 3500 
z
" transform="scale(0.015625)"/>
       <path id="DejaVuSans-442" d="M 188 3500 
L 3541 3500 
L 3541 3041 
L 2147 3041 
L 2147 0 
L 1581 0 
L 1581 3041 
L 188 3041 
L 188 3500 
z
" transform="scale(0.015625)"/>
      </defs>
      <use xlink:href="#DejaVuSans-420"/>
      <use xlink:href="#DejaVuSans-430" x="60.302734"/>
      <use xlink:href="#DejaVuSans-437" x="121.582031"/>
      <use xlink:href="#DejaVuSans-43c" x="174.755859"/>
      <use xlink:href="#DejaVuSans-435" x="250.195312"/>
      <use xlink:href="#DejaVuSans-440" x="311.71875"/>
      <use xlink:href="#DejaVuSans-20" x="375.195312"/>
      <use xlink:href="#DejaVuSans-431" x="406.982422"/>
      <use xlink:href="#DejaVuSans-430" x="468.652344"/>
      <use xlink:href="#DejaVuSans-43a" x="529.931641"/>
      <use xlink:href="#DejaVuSans-435" x="590.332031"/>
      <use xlink:href="#DejaVuSans-442" x="651.855469"/>
      <use xlink:href="#DejaVuSans-430" x="710.107422"/>
     </g>
    </g>
   </g>
   <g id="matplotlib.axis_2">
    <g id="ytick_1">
     <g id="line2d_8">
      <defs>
       <path id="m1ab066b0c8" d="M 0 0 
L -3.5 0 
" style="stroke: #000000; stroke-width: 0.8"/>
      </defs>
      <g>
       <use xlink:href="#m1ab066b0c8" x="57.6" y="307.584" style="stroke: #000000; stroke-width: 0.8"/>
      </g>
     </g>
     <g id="text_9">
      <!-- 0 -->
      <g transform="translate(44.2375 311.383219) scale(0.1 -0.1)">
       <use xlink:href="#DejaVuSans-30"/>
      </g>
     </g>
    </g>
    <g id="ytick_2">
     <g id="line2d_9">
      <g>
       <use xlink:href="#m1ab066b0c8" x="57.6" y="274.411225" style="stroke: #000000; stroke-width: 0.8"/>
      </g>
     </g>
     <g id="text_10">
      <!-- 50 -->
      <g transform="translate(37.875 278.210444) scale(0.1 -0.1)">
       <defs>
        <path id="DejaVuSans-35" d="M 691 4666 
L 3169 4666 
L 3169 4134 
L 1269 4134 
L 1269 2991 
Q 1406 3038 1543 3061 
Q 1681 3084 1819 3084 
Q 2600 3084 3056 2656 
Q 3513 2228 3513 1497 
Q 3513 744 3044 326 
Q 2575 -91 1722 -91 
Q 1428 -91 1123 -41 
Q 819 9 494 109 
L 494 744 
Q 775 591 1075 516 
Q 1375 441 1709 441 
Q 2250 441 2565 725 
Q 2881 1009 2881 1497 
Q 2881 1984 2565 2268 
Q 2250 2553 1709 2553 
Q 1456 2553 1204 2497 
Q 953 2441 691 2322 
L 691 4666 
z
" transform="scale(0.015625)"/>
       </defs>
       <use xlink:href="#DejaVuSans-35"/>
       <use xlink:href="#DejaVuSans-30" x="63.623047"/>
      </g>
     </g>
    </g>
    <g id="ytick_3">
     <g id="line2d_10">
      <g>
       <use xlink:href="#m1ab066b0c8" x="57.6" y="241.23845" style="stroke: #000000; stroke-width: 0.8"/>
      </g>
     </g>
     <g id="text_11">
      <!-- 100 -->
      <g transform="translate(31.5125 245.037669) scale(0.1 -0.1)">
       <use xlink:href="#DejaVuSans-31"/>
       <use xlink:href="#DejaVuSans-30" x="63.623047"/>
       <use xlink:href="#DejaVuSans-30" x="127.246094"/>
      </g>
     </g>
    </g>
    <g id="ytick_4">
     <g id="line2d_11">
      <g>
       <use xlink:href="#m1ab066b0c8" x="57.6" y="208.065675" style="stroke: #000000; stroke-width: 0.8"/>
      </g>
     </g>
     <g id="text_12">
      <!-- 150 -->
      <g transform="translate(31.5125 211.864894) scale(0.1 -0.1)">
       <use xlink:href="#DejaVuSans-31"/>
       <use xlink:href="#DejaVuSans-35" x="63.623047"/>
       <use xlink:href="#DejaVuSans-30" x="127.246094"/>
      </g>
     </g>
    </g>
    <g id="ytick_5">
     <g id="line2d_12">
      <g>
       <use xlink:href="#m1ab066b0c8" x="57.6" y="174.892901" style="stroke: #000000; stroke-width: 0.8"/>
      </g>
     </g>
     <g id="text_13">
      <!-- 200 -->
      <g transform="translate(31.5125 178.692119) scale(0.1 -0.1)">
       <use xlink:href="#DejaVuSans-32"/>
       <use xlink:href="#DejaVuSans-30" x="63.623047"/>
       <use xlink:href="#DejaVuSans-30" x="127.246094"/>
      </g>
     </g>
    </g>
    <g id="ytick_6">
     <g id="line2d_13">
      <g>
       <use xlink:href="#m1ab066b0c8" x="57.6" y="141.720126" style="stroke: #000000; stroke-width: 0.8"/>
      </g>
     </g>
     <g id="text_14">
      <!-- 250 -->
      <g transform="translate(31.5125 145.519344) scale(0.1 -0.1)">
       <use xlink:href="#DejaVuSans-32"/>
       <use xlink:href="#DejaVuSans-35" x="63.623047"/>
       <use xlink:href="#DejaVuSans-30" x="127.246094"/>
      </g>
     </g>
    </g>
    <g id="ytick_7">
     <g id="line2d_14">
      <g>
       <use xlink:href="#m1ab066b0c8" x="57.6" y="108.547351" style="stroke: #000000; stroke-width: 0.8"/>
      </g>
     </g>
     <g id="text_15">
      <!-- 300 -->
      <g transform="translate(31.5125 112.34657) scale(0.1 -0.1)">
       <defs>
        <path id="DejaVuSans-33" d="M 2597 2516 
Q 3050 2419 3304 2112 
Q 3559 1806 3559 1356 
Q 3559 666 3084 287 
Q 2609 -91 1734 -91 
Q 1441 -91 1130 -33 
Q 819 25 488 141 
L 488 750 
Q 750 597 1062 519 
Q 1375 441 1716 441 
Q 2309 441 2620 675 
Q 2931 909 2931 1356 
Q 2931 1769 2642 2001 
Q 2353 2234 1838 2234 
L 1294 2234 
L 1294 2753 
L 1863 2753 
Q 2328 2753 2575 2939 
Q 2822 3125 2822 3475 
Q 2822 3834 2567 4026 
Q 2313 4219 1838 4219 
Q 1578 4219 1281 4162 
Q 984 4106 628 3988 
L 628 4550 
Q 988 4650 1302 4700 
Q 1616 4750 1894 4750 
Q 2613 4750 3031 4423 
Q 3450 4097 3450 3541 
Q 3450 3153 3228 2886 
Q 3006 2619 2597 2516 
z
" transform="scale(0.015625)"/>
       </defs>
       <use xlink:href="#DejaVuSans-33"/>
       <use xlink:href="#DejaVuSans-30" x="63.623047"/>
       <use xlink:href="#DejaVuSans-30" x="127.246094"/>
      </g>
     </g>
    </g>
    <g id="ytick_8">
     <g id="line2d_15">
      <g>
       <use xlink:href="#m1ab066b0c8" x="57.6" y="75.374576" style="stroke: #000000; stroke-width: 0.8"/>
      </g>
     </g>
     <g id="text_16">
      <!-- 350 -->
      <g transform="translate(31.5125 79.173795) scale(0.1 -0.1)">
       <use xlink:href="#DejaVuSans-33"/>
       <use xlink:href="#DejaVuSans-35" x="63.623047"/>
       <use xlink:href="#DejaVuSans-30" x="127.246094"/>
      </g>
     </g>
    </g>
    <g id="ytick_9">
     <g id="line2d_16">
      <g>
       <use xlink:href="#m1ab066b0c8" x="57.6" y="42.201801" style="stroke: #000000; stroke-width: 0.8"/>
      </g>
     </g>
     <g id="text_17">
      <!-- 400 -->
      <g transform="translate(31.5125 46.00102) scale(0.1 -0.1)">
       <use xlink:href="#DejaVuSans-34"/>
       <use xlink:href="#DejaVuSans-30" x="63.623047"/>
       <use xlink:href="#DejaVuSans-30" x="127.246094"/>
      </g>
     </g>
    </g>
    <g id="text_18">
     <!-- Количество бакетов -->
     <g transform="translate(25.432812 228.033469) rotate(-90) scale(0.1 -0.1)">
      <defs>
       <path id="DejaVuSans-41a" d="M 628 4666 
L 1259 4666 
L 1259 2359 
L 3516 4666 
L 4325 4666 
L 2522 2822 
L 4419 0 
L 3731 0 
L 2113 2403 
L 1259 1531 
L 1259 0 
L 628 0 
L 628 4666 
z
" transform="scale(0.015625)"/>
       <path id="DejaVuSans-43e" d="M 1959 3097 
Q 1497 3097 1228 2736 
Q 959 2375 959 1747 
Q 959 1119 1226 758 
Q 1494 397 1959 397 
Q 2419 397 2687 759 
Q 2956 1122 2956 1747 
Q 2956 2369 2687 2733 
Q 2419 3097 1959 3097 
z
M 1959 3584 
Q 2709 3584 3137 3096 
Q 3566 2609 3566 1747 
Q 3566 888 3137 398 
Q 2709 -91 1959 -91 
Q 1206 -91 779 398 
Q 353 888 353 1747 
Q 353 2609 779 3096 
Q 1206 3584 1959 3584 
z
" transform="scale(0.015625)"/>
       <path id="DejaVuSans-43b" d="M 238 0 
L 238 478 
Q 806 566 981 959 
Q 1194 1513 1194 2928 
L 1194 3500 
L 3559 3500 
L 3559 0 
L 2984 0 
L 2984 3041 
L 1769 3041 
L 1769 2694 
Q 1769 1344 1494 738 
Q 1200 91 238 0 
z
" transform="scale(0.015625)"/>
       <path id="DejaVuSans-438" d="M 3578 3500 
L 3578 0 
L 3006 0 
L 3006 2809 
L 1319 0 
L 581 0 
L 581 3500 
L 1153 3500 
L 1153 697 
L 2838 3500 
L 3578 3500 
z
" transform="scale(0.015625)"/>
       <path id="DejaVuSans-447" d="M 2625 0 
L 2625 1472 
L 1553 1472 
Q 1075 1472 756 1769 
Q 469 2038 469 2613 
L 469 3500 
L 1044 3500 
L 1044 2666 
Q 1044 2300 1206 2116 
Q 1372 1931 1697 1931 
L 2625 1931 
L 2625 3500 
L 3200 3500 
L 3200 0 
L 2625 0 
z
" transform="scale(0.015625)"/>
       <path id="DejaVuSans-441" d="M 3122 3366 
L 3122 2828 
Q 2878 2963 2633 3030 
Q 2388 3097 2138 3097 
Q 1578 3097 1268 2742 
Q 959 2388 959 1747 
Q 959 1106 1268 751 
Q 1578 397 2138 397 
Q 2388 397 2633 464 
Q 2878 531 3122 666 
L 3122 134 
Q 2881 22 2623 -34 
Q 2366 -91 2075 -91 
Q 1284 -91 818 406 
Q 353 903 353 1747 
Q 353 2603 823 3093 
Q 1294 3584 2113 3584 
Q 2378 3584 2631 3529 
Q 2884 3475 3122 3366 
z
" transform="scale(0.015625)"/>
       <path id="DejaVuSans-432" d="M 1156 1613 
L 1156 459 
L 1975 459 
Q 2369 459 2575 607 
Q 2781 756 2781 1038 
Q 2781 1319 2575 1466 
Q 2369 1613 1975 1613 
L 1156 1613 
z
M 1156 3041 
L 1156 2072 
L 1913 2072 
Q 2238 2072 2444 2201 
Q 2650 2331 2650 2563 
Q 2650 2794 2444 2917 
Q 2238 3041 1913 3041 
L 1156 3041 
z
M 581 3500 
L 1950 3500 
Q 2566 3500 2897 3275 
Q 3228 3050 3228 2634 
Q 3228 2313 3059 2123 
Q 2891 1934 2559 1888 
Q 2956 1813 3175 1575 
Q 3394 1338 3394 981 
Q 3394 513 3033 256 
Q 2672 0 2003 0 
L 581 0 
L 581 3500 
z
" transform="scale(0.015625)"/>
      </defs>
      <use xlink:href="#DejaVuSans-41a"/>
      <use xlink:href="#DejaVuSans-43e" x="70.996094"/>
      <use xlink:href="#DejaVuSans-43b" x="132.177734"/>
      <use xlink:href="#DejaVuSans-438" x="196.09375"/>
      <use xlink:href="#DejaVuSans-447" x="261.083984"/>
      <use xlink:href="#DejaVuSans-435" x="320.166016"/>
      <use xlink:href="#DejaVuSans-441" x="381.689453"/>
      <use xlink:href="#DejaVuSans-442" x="436.669922"/>
      <use xlink:href="#DejaVuSans-432" x="494.921875"/>
      <use xlink:href="#DejaVuSans-43e" x="553.857422"/>
      <use xlink:href="#DejaVuSans-20" x="615.039062"/>
      <use xlink:href="#DejaVuSans-431" x="646.826172"/>
      <use xlink:href="#DejaVuSans-430" x="708.496094"/>
      <use xlink:href="#DejaVuSans-43a" x="769.775391"/>
      <use xlink:href="#DejaVuSans-435" x="830.175781"/>
      <use xlink:href="#DejaVuSans-442" x="891.699219"/>
      <use xlink:href="#DejaVuSans-43e" x="949.951172"/>
      <use xlink:href="#DejaVuSans-432" x="1011.132812"/>
     </g>
    </g>
   </g>
   <g id="patch_118">
    <path d="M 57.6 307.584 
L 57.6 41.472 
" style="fill: none; stroke: #000000; stroke-width: 0.8; stroke-linejoin: miter; stroke-linecap: square"/>
   </g>
   <g id="patch_119">
    <path d="M 414.72 307.584 
L 414.72 41.472 
" style="fill: none; stroke: #000000; stroke-width: 0.8; stroke-linejoin: miter; stroke-linecap: square"/>
   </g>
   <g id="patch_120">
    <path d="M 57.6 307.584 
L 414.72 307.584 
" style="fill: none; stroke: #000000; stroke-width: 0.8; stroke-linejoin: miter; stroke-linecap: square"/>
   </g>
   <g id="patch_121">
    <path d="M 57.6 41.472 
L 414.72 41.472 
" style="fill: none; stroke: #000000; stroke-width: 0.8; stroke-linejoin: miter; stroke-linecap: square"/>
   </g>
   <g id="text_19">
    <!-- Гистограмма распределения бакетов по их размеру -->
    <g transform="translate(69.5325 35.472) scale(0.12 -0.12)">
     <defs>
      <path id="DejaVuSans-413" d="M 628 0 
L 628 4666 
L 3531 4666 
L 3531 4134 
L 1259 4134 
L 1259 0 
L 628 0 
z
" transform="scale(0.015625)"/>
      <path id="DejaVuSans-433" d="M 581 0 
L 581 3500 
L 3050 3500 
L 3050 3041 
L 1159 3041 
L 1159 0 
L 581 0 
z
" transform="scale(0.015625)"/>
      <path id="DejaVuSans-43f" d="M 3603 3500 
L 3603 0 
L 3025 0 
L 3025 3041 
L 1159 3041 
L 1159 0 
L 581 0 
L 581 3500 
L 3603 3500 
z
" transform="scale(0.015625)"/>
      <path id="DejaVuSans-434" d="M 1384 459 
L 3053 459 
L 3053 3041 
L 1844 3041 
L 1844 2603 
Q 1844 1316 1475 628 
L 1384 459 
z
M 550 459 
Q 834 584 959 850 
Q 1266 1509 1266 2838 
L 1266 3500 
L 3631 3500 
L 3631 459 
L 4091 459 
L 4091 -884 
L 3631 -884 
L 3631 0 
L 794 0 
L 794 -884 
L 334 -884 
L 334 459 
L 550 459 
z
" transform="scale(0.015625)"/>
      <path id="DejaVuSans-43d" d="M 581 3500 
L 1159 3500 
L 1159 2072 
L 3025 2072 
L 3025 3500 
L 3603 3500 
L 3603 0 
L 3025 0 
L 3025 1613 
L 1159 1613 
L 1159 0 
L 581 0 
L 581 3500 
z
" transform="scale(0.015625)"/>
      <path id="DejaVuSans-44f" d="M 1181 2491 
Q 1181 2231 1381 2084 
Q 1581 1938 1953 1938 
L 2728 1938 
L 2728 3041 
L 1953 3041 
Q 1581 3041 1381 2897 
Q 1181 2753 1181 2491 
z
M 363 0 
L 1431 1534 
Q 1069 1616 828 1830 
Q 588 2044 588 2491 
Q 588 2997 923 3248 
Q 1259 3500 1938 3500 
L 3306 3500 
L 3306 0 
L 2728 0 
L 2728 1478 
L 2013 1478 
L 981 0 
L 363 0 
z
" transform="scale(0.015625)"/>
      <path id="DejaVuSans-445" d="M 3513 3500 
L 2247 1797 
L 3578 0 
L 2900 0 
L 1881 1375 
L 863 0 
L 184 0 
L 1544 1831 
L 300 3500 
L 978 3500 
L 1906 2253 
L 2834 3500 
L 3513 3500 
z
" transform="scale(0.015625)"/>
      <path id="DejaVuSans-443" d="M 2059 -325 
Q 1816 -950 1584 -1140 
Q 1353 -1331 966 -1331 
L 506 -1331 
L 506 -850 
L 844 -850 
Q 1081 -850 1212 -737 
Q 1344 -625 1503 -206 
L 1606 56 
L 191 3500 
L 800 3500 
L 1894 763 
L 2988 3500 
L 3597 3500 
L 2059 -325 
z
" transform="scale(0.015625)"/>
     </defs>
     <use xlink:href="#DejaVuSans-413"/>
     <use xlink:href="#DejaVuSans-438" x="60.986328"/>
     <use xlink:href="#DejaVuSans-441" x="125.976562"/>
     <use xlink:href="#DejaVuSans-442" x="180.957031"/>
     <use xlink:href="#DejaVuSans-43e" x="239.208984"/>
     <use xlink:href="#DejaVuSans-433" x="300.390625"/>
     <use xlink:href="#DejaVuSans-440" x="352.929688"/>
     <use xlink:href="#DejaVuSans-430" x="416.40625"/>
     <use xlink:href="#DejaVuSans-43c" x="477.685547"/>
     <use xlink:href="#DejaVuSans-43c" x="553.125"/>
     <use xlink:href="#DejaVuSans-430" x="628.564453"/>
     <use xlink:href="#DejaVuSans-20" x="689.84375"/>
     <use xlink:href="#DejaVuSans-440" x="721.630859"/>
     <use xlink:href="#DejaVuSans-430" x="785.107422"/>
     <use xlink:href="#DejaVuSans-441" x="846.386719"/>
     <use xlink:href="#DejaVuSans-43f" x="901.367188"/>
     <use xlink:href="#DejaVuSans-440" x="966.748047"/>
     <use xlink:href="#DejaVuSans-435" x="1030.224609"/>
     <use xlink:href="#DejaVuSans-434" x="1091.748047"/>
     <use xlink:href="#DejaVuSans-435" x="1160.888672"/>
     <use xlink:href="#DejaVuSans-43b" x="1222.412109"/>
     <use xlink:href="#DejaVuSans-435" x="1286.328125"/>
     <use xlink:href="#DejaVuSans-43d" x="1347.851562"/>
     <use xlink:href="#DejaVuSans-438" x="1413.232422"/>
     <use xlink:href="#DejaVuSans-44f" x="1478.222656"/>
     <use xlink:href="#DejaVuSans-20" x="1538.378906"/>
     <use xlink:href="#DejaVuSans-431" x="1570.166016"/>
     <use xlink:href="#DejaVuSans-430" x="1631.835938"/>
     <use xlink:href="#DejaVuSans-43a" x="1693.115234"/>
     <use xlink:href="#DejaVuSans-435" x="1753.515625"/>
     <use xlink:href="#DejaVuSans-442" x="1815.039062"/>
     <use xlink:href="#DejaVuSans-43e" x="1873.291016"/>
     <use xlink:href="#DejaVuSans-432" x="1934.472656"/>
     <use xlink:href="#DejaVuSans-20" x="1993.408203"/>
     <use xlink:href="#DejaVuSans-43f" x="2025.195312"/>
     <use xlink:href="#DejaVuSans-43e" x="2090.576172"/>
     <use xlink:href="#DejaVuSans-20" x="2151.757812"/>
     <use xlink:href="#DejaVuSans-438" x="2183.544922"/>
     <use xlink:href="#DejaVuSans-445" x="2248.535156"/>
     <use xlink:href="#DejaVuSans-20" x="2307.714844"/>
     <use xlink:href="#DejaVuSans-440" x="2339.501953"/>
     <use xlink:href="#DejaVuSans-430" x="2402.978516"/>
     <use xlink:href="#DejaVuSans-437" x="2464.257812"/>
     <use xlink:href="#DejaVuSans-43c" x="2517.431641"/>
     <use xlink:href="#DejaVuSans-435" x="2592.871094"/>
     <use xlink:href="#DejaVuSans-440" x="2654.394531"/>
     <use xlink:href="#DejaVuSans-443" x="2717.871094"/>
    </g>
   </g>
   <g id="legend_1">
    <g id="patch_122">
     <path d="M 325.154375 64.150125 
L 407.72 64.150125 
Q 409.72 64.150125 409.72 62.150125 
L 409.72 48.472 
Q 409.72 46.472 407.72 46.472 
L 325.154375 46.472 
Q 323.154375 46.472 323.154375 48.472 
L 323.154375 62.150125 
Q 323.154375 64.150125 325.154375 64.150125 
z
" style="fill: #ffffff; opacity: 0.8; stroke: #cccccc; stroke-linejoin: miter"/>
    </g>
    <g id="patch_123">
     <path d="M 327.154375 58.070438 
L 347.154375 58.070438 
L 347.154375 51.070438 
L 327.154375 51.070438 
z
" style="fill: #1f77b4"/>
    </g>
    <g id="text_20">
     <!-- checksum -->
     <g transform="translate(355.154375 58.070438) scale(0.1 -0.1)">
      <defs>
       <path id="DejaVuSans-63" d="M 3122 3366 
L 3122 2828 
Q 2878 2963 2633 3030 
Q 2388 3097 2138 3097 
Q 1578 3097 1268 2742 
Q 959 2388 959 1747 
Q 959 1106 1268 751 
Q 1578 397 2138 397 
Q 2388 397 2633 464 
Q 2878 531 3122 666 
L 3122 134 
Q 2881 22 2623 -34 
Q 2366 -91 2075 -91 
Q 1284 -91 818 406 
Q 353 903 353 1747 
Q 353 2603 823 3093 
Q 1294 3584 2113 3584 
Q 2378 3584 2631 3529 
Q 2884 3475 3122 3366 
z
" transform="scale(0.015625)"/>
       <path id="DejaVuSans-68" d="M 3513 2113 
L 3513 0 
L 2938 0 
L 2938 2094 
Q 2938 2591 2744 2837 
Q 2550 3084 2163 3084 
Q 1697 3084 1428 2787 
Q 1159 2491 1159 1978 
L 1159 0 
L 581 0 
L 581 4863 
L 1159 4863 
L 1159 2956 
Q 1366 3272 1645 3428 
Q 1925 3584 2291 3584 
Q 2894 3584 3203 3211 
Q 3513 2838 3513 2113 
z
" transform="scale(0.015625)"/>
       <path id="DejaVuSans-65" d="M 3597 1894 
L 3597 1613 
L 953 1613 
Q 991 1019 1311 708 
Q 1631 397 2203 397 
Q 2534 397 2845 478 
Q 3156 559 3463 722 
L 3463 178 
Q 3153 47 2828 -22 
Q 2503 -91 2169 -91 
Q 1331 -91 842 396 
Q 353 884 353 1716 
Q 353 2575 817 3079 
Q 1281 3584 2069 3584 
Q 2775 3584 3186 3129 
Q 3597 2675 3597 1894 
z
M 3022 2063 
Q 3016 2534 2758 2815 
Q 2500 3097 2075 3097 
Q 1594 3097 1305 2825 
Q 1016 2553 972 2059 
L 3022 2063 
z
" transform="scale(0.015625)"/>
       <path id="DejaVuSans-6b" d="M 581 4863 
L 1159 4863 
L 1159 1991 
L 2875 3500 
L 3609 3500 
L 1753 1863 
L 3688 0 
L 2938 0 
L 1159 1709 
L 1159 0 
L 581 0 
L 581 4863 
z
" transform="scale(0.015625)"/>
       <path id="DejaVuSans-73" d="M 2834 3397 
L 2834 2853 
Q 2591 2978 2328 3040 
Q 2066 3103 1784 3103 
Q 1356 3103 1142 2972 
Q 928 2841 928 2578 
Q 928 2378 1081 2264 
Q 1234 2150 1697 2047 
L 1894 2003 
Q 2506 1872 2764 1633 
Q 3022 1394 3022 966 
Q 3022 478 2636 193 
Q 2250 -91 1575 -91 
Q 1294 -91 989 -36 
Q 684 19 347 128 
L 347 722 
Q 666 556 975 473 
Q 1284 391 1588 391 
Q 1994 391 2212 530 
Q 2431 669 2431 922 
Q 2431 1156 2273 1281 
Q 2116 1406 1581 1522 
L 1381 1569 
Q 847 1681 609 1914 
Q 372 2147 372 2553 
Q 372 3047 722 3315 
Q 1072 3584 1716 3584 
Q 2034 3584 2315 3537 
Q 2597 3491 2834 3397 
z
" transform="scale(0.015625)"/>
       <path id="DejaVuSans-75" d="M 544 1381 
L 544 3500 
L 1119 3500 
L 1119 1403 
Q 1119 906 1312 657 
Q 1506 409 1894 409 
Q 2359 409 2629 706 
Q 2900 1003 2900 1516 
L 2900 3500 
L 3475 3500 
L 3475 0 
L 2900 0 
L 2900 538 
Q 2691 219 2414 64 
Q 2138 -91 1772 -91 
Q 1169 -91 856 284 
Q 544 659 544 1381 
z
M 1991 3584 
L 1991 3584 
z
" transform="scale(0.015625)"/>
       <path id="DejaVuSans-6d" d="M 3328 2828 
Q 3544 3216 3844 3400 
Q 4144 3584 4550 3584 
Q 5097 3584 5394 3201 
Q 5691 2819 5691 2113 
L 5691 0 
L 5113 0 
L 5113 2094 
Q 5113 2597 4934 2840 
Q 4756 3084 4391 3084 
Q 3944 3084 3684 2787 
Q 3425 2491 3425 1978 
L 3425 0 
L 2847 0 
L 2847 2094 
Q 2847 2600 2669 2842 
Q 2491 3084 2119 3084 
Q 1678 3084 1418 2786 
Q 1159 2488 1159 1978 
L 1159 0 
L 581 0 
L 581 3500 
L 1159 3500 
L 1159 2956 
Q 1356 3278 1631 3431 
Q 1906 3584 2284 3584 
Q 2666 3584 2933 3390 
Q 3200 3197 3328 2828 
z
" transform="scale(0.015625)"/>
      </defs>
      <use xlink:href="#DejaVuSans-63"/>
      <use xlink:href="#DejaVuSans-68" x="54.980469"/>
      <use xlink:href="#DejaVuSans-65" x="118.359375"/>
      <use xlink:href="#DejaVuSans-63" x="179.882812"/>
      <use xlink:href="#DejaVuSans-6b" x="234.863281"/>
      <use xlink:href="#DejaVuSans-73" x="292.773438"/>
      <use xlink:href="#DejaVuSans-75" x="344.873047"/>
      <use xlink:href="#DejaVuSans-6d" x="408.251953"/>
     </g>
    </g>
   </g>
  </g>
 </g>
 <defs>
  <clipPath id="p6b8a7bc2db">
   <rect x="57.6" y="41.472" width="357.12" height="266.112"/>
  </clipPath>
 </defs>
</svg>
