<?xml version="1.0" encoding="utf-8" standalone="no"?>
<!DOCTYPE svg PUBLIC "-//W3C//DTD SVG 1.1//EN"
  "http://www.w3.org/Graphics/SVG/1.1/DTD/svg11.dtd">
<svg xmlns:xlink="http://www.w3.org/1999/xlink" width="460.8pt" height="345.6pt" viewBox="0 0 460.8 345.6" xmlns="http://www.w3.org/2000/svg" version="1.1">
 <metadata>
  <rdf:RDF xmlns:dc="http://purl.org/dc/elements/1.1/" xmlns:cc="http://creativecommons.org/ns#" xmlns:rdf="http://www.w3.org/1999/02/22-rdf-syntax-ns#">
   <cc:Work>
    <dc:type rdf:resource="http://purl.org/dc/dcmitype/StillImage"/>
    <dc:date>2025-05-11T18:02:21.987361</dc:date>
    <dc:format>image/svg+xml</dc:format>
    <dc:creator>
     <cc:Agent>
      <dc:title>Matplotlib v3.6.3, https://matplotlib.org/</dc:title>
     </cc:Agent>
    </dc:creator>
   </cc:Work>
  </rdf:RDF>
 </metadata>
 <defs>
  <style type="text/css">*{stroke-linejoin: round; stroke-linecap: butt}</style>
 </defs>
 <g id="figure_1">
  <g id="patch_1">
   <path d="M 0 345.6 
L 460.8 345.6 
L 460.8 0 
L 0 0 
z
" style="fill: #ffffff"/>
  </g>
  <g id="axes_1">
   <g id="patch_2">
    <path d="M 57.6 307.584 
L 414.72 307.584 
L 414.72 41.472 
L 57.6 41.472 
z
" style="fill: #ffffff"/>
   </g>
   <g id="patch_3">
    <path d="M 73.832727 307.584 
L 79.762491 307.584 
L 79.762491 304.637023 
L 73.832727 304.637023 
z
" clip-path="url(#pad16a2d8d4)" style="fill: #1f77b4"/>
   </g>
   <g id="patch_4">
    <path d="M 81.244932 307.584 
L 87.174695 307.584 
L 87.174695 295.796093 
L 81.244932 295.796093 
z
" clip-path="url(#pad16a2d8d4)" style="fill: #1f77b4"/>
   </g>
   <g id="patch_5">
    <path d="M 88.657136 307.584 
L 94.586899 307.584 
L 94.586899 260.432372 
L 88.657136 260.432372 
z
" clip-path="url(#pad16a2d8d4)" style="fill: #1f77b4"/>
   </g>
   <g id="patch_6">
    <path d="M 96.06934 307.584 
L 101.999103 307.584 
L 101.999103 225.068651 
L 96.06934 225.068651 
z
" clip-path="url(#pad16a2d8d4)" style="fill: #1f77b4"/>
   </g>
   <g id="patch_7">
    <path d="M 103.481544 307.584 
L 109.411308 307.584 
L 109.411308 142.553302 
L 103.481544 142.553302 
z
" clip-path="url(#pad16a2d8d4)" style="fill: #1f77b4"/>
   </g>
   <g id="patch_8">
    <path d="M 110.893748 307.584 
L 116.823512 307.584 
L 116.823512 136.659349 
L 110.893748 136.659349 
z
" clip-path="url(#pad16a2d8d4)" style="fill: #1f77b4"/>
   </g>
   <g id="patch_9">
    <path d="M 118.305953 307.584 
L 124.235716 307.584 
L 124.235716 54.144 
L 118.305953 54.144 
z
" clip-path="url(#pad16a2d8d4)" style="fill: #1f77b4"/>
   </g>
   <g id="patch_10">
    <path d="M 125.718157 307.584 
L 131.64792 307.584 
L 131.64792 89.507721 
L 125.718157 89.507721 
z
" clip-path="url(#pad16a2d8d4)" style="fill: #1f77b4"/>
   </g>
   <g id="patch_11">
    <path d="M 133.130361 307.584 
L 139.060125 307.584 
L 139.060125 118.977488 
L 133.130361 118.977488 
z
" clip-path="url(#pad16a2d8d4)" style="fill: #1f77b4"/>
   </g>
   <g id="patch_12">
    <path d="M 140.542565 307.584 
L 146.472329 307.584 
L 146.472329 130.765395 
L 140.542565 130.765395 
z
" clip-path="url(#pad16a2d8d4)" style="fill: #1f77b4"/>
   </g>
   <g id="patch_13">
    <path d="M 147.95477 307.584 
L 153.884533 307.584 
L 153.884533 169.076093 
L 147.95477 169.076093 
z
" clip-path="url(#pad16a2d8d4)" style="fill: #1f77b4"/>
   </g>
   <g id="patch_14">
    <path d="M 155.366974 307.584 
L 161.296737 307.584 
L 161.296737 163.18214 
L 155.366974 163.18214 
z
" clip-path="url(#pad16a2d8d4)" style="fill: #1f77b4"/>
   </g>
   <g id="patch_15">
    <path d="M 162.779178 307.584 
L 168.708941 307.584 
L 168.708941 204.439814 
L 162.779178 204.439814 
z
" clip-path="url(#pad16a2d8d4)" style="fill: #1f77b4"/>
   </g>
   <g id="patch_16">
    <path d="M 170.191382 307.584 
L 176.121146 307.584 
L 176.121146 154.341209 
L 170.191382 154.341209 
z
" clip-path="url(#pad16a2d8d4)" style="fill: #1f77b4"/>
   </g>
   <g id="patch_17">
    <path d="M 177.603587 307.584 
L 183.53335 307.584 
L 183.53335 142.553302 
L 177.603587 142.553302 
z
" clip-path="url(#pad16a2d8d4)" style="fill: #1f77b4"/>
   </g>
   <g id="patch_18">
    <path d="M 185.015791 307.584 
L 190.945554 307.584 
L 190.945554 160.235163 
L 185.015791 160.235163 
z
" clip-path="url(#pad16a2d8d4)" style="fill: #1f77b4"/>
   </g>
   <g id="patch_19">
    <path d="M 192.427995 307.584 
L 198.357758 307.584 
L 198.357758 177.917023 
L 192.427995 177.917023 
z
" clip-path="url(#pad16a2d8d4)" style="fill: #1f77b4"/>
   </g>
   <g id="patch_20">
    <path d="M 199.840199 307.584 
L 205.769963 307.584 
L 205.769963 113.083535 
L 199.840199 113.083535 
z
" clip-path="url(#pad16a2d8d4)" style="fill: #1f77b4"/>
   </g>
   <g id="patch_21">
    <path d="M 207.252403 307.584 
L 213.182167 307.584 
L 213.182167 183.810977 
L 207.252403 183.810977 
z
" clip-path="url(#pad16a2d8d4)" style="fill: #1f77b4"/>
   </g>
   <g id="patch_22">
    <path d="M 214.664608 307.584 
L 220.594371 307.584 
L 220.594371 139.606326 
L 214.664608 139.606326 
z
" clip-path="url(#pad16a2d8d4)" style="fill: #1f77b4"/>
   </g>
   <g id="patch_23">
    <path d="M 222.076812 307.584 
L 228.006575 307.584 
L 228.006575 169.076093 
L 222.076812 169.076093 
z
" clip-path="url(#pad16a2d8d4)" style="fill: #1f77b4"/>
   </g>
   <g id="patch_24">
    <path d="M 229.489016 307.584 
L 235.41878 307.584 
L 235.41878 177.917023 
L 229.489016 177.917023 
z
" clip-path="url(#pad16a2d8d4)" style="fill: #1f77b4"/>
   </g>
   <g id="patch_25">
    <path d="M 236.90122 307.584 
L 242.830984 307.584 
L 242.830984 169.076093 
L 236.90122 169.076093 
z
" clip-path="url(#pad16a2d8d4)" style="fill: #1f77b4"/>
   </g>
   <g id="patch_26">
    <path d="M 244.313425 307.584 
L 250.243188 307.584 
L 250.243188 154.341209 
L 244.313425 154.341209 
z
" clip-path="url(#pad16a2d8d4)" style="fill: #1f77b4"/>
   </g>
   <g id="patch_27">
    <path d="M 251.725629 307.584 
L 257.655392 307.584 
L 257.655392 198.54586 
L 251.725629 198.54586 
z
" clip-path="url(#pad16a2d8d4)" style="fill: #1f77b4"/>
   </g>
   <g id="patch_28">
    <path d="M 259.137833 307.584 
L 265.067597 307.584 
L 265.067597 183.810977 
L 259.137833 183.810977 
z
" clip-path="url(#pad16a2d8d4)" style="fill: #1f77b4"/>
   </g>
   <g id="patch_29">
    <path d="M 266.550037 307.584 
L 272.479801 307.584 
L 272.479801 180.864 
L 266.550037 180.864 
z
" clip-path="url(#pad16a2d8d4)" style="fill: #1f77b4"/>
   </g>
   <g id="patch_30">
    <path d="M 273.962242 307.584 
L 279.892005 307.584 
L 279.892005 207.386791 
L 273.962242 207.386791 
z
" clip-path="url(#pad16a2d8d4)" style="fill: #1f77b4"/>
   </g>
   <g id="patch_31">
    <path d="M 281.374446 307.584 
L 287.304209 307.584 
L 287.304209 154.341209 
L 281.374446 154.341209 
z
" clip-path="url(#pad16a2d8d4)" style="fill: #1f77b4"/>
   </g>
   <g id="patch_32">
    <path d="M 288.78665 307.584 
L 294.716413 307.584 
L 294.716413 210.333767 
L 288.78665 210.333767 
z
" clip-path="url(#pad16a2d8d4)" style="fill: #1f77b4"/>
   </g>
   <g id="patch_33">
    <path d="M 296.198854 307.584 
L 302.128618 307.584 
L 302.128618 222.121674 
L 296.198854 222.121674 
z
" clip-path="url(#pad16a2d8d4)" style="fill: #1f77b4"/>
   </g>
   <g id="patch_34">
    <path d="M 303.611059 307.584 
L 309.540822 307.584 
L 309.540822 254.538419 
L 303.611059 254.538419 
z
" clip-path="url(#pad16a2d8d4)" style="fill: #1f77b4"/>
   </g>
   <g id="patch_35">
    <path d="M 311.023263 307.584 
L 316.953026 307.584 
L 316.953026 242.750512 
L 311.023263 242.750512 
z
" clip-path="url(#pad16a2d8d4)" style="fill: #1f77b4"/>
   </g>
   <g id="patch_36">
    <path d="M 318.435467 307.584 
L 324.36523 307.584 
L 324.36523 263.379349 
L 318.435467 263.379349 
z
" clip-path="url(#pad16a2d8d4)" style="fill: #1f77b4"/>
   </g>
   <g id="patch_37">
    <path d="M 325.847671 307.584 
L 331.777435 307.584 
L 331.777435 286.955163 
L 325.847671 286.955163 
z
" clip-path="url(#pad16a2d8d4)" style="fill: #1f77b4"/>
   </g>
   <g id="patch_38">
    <path d="M 333.259875 307.584 
L 339.189639 307.584 
L 339.189639 281.061209 
L 333.259875 281.061209 
z
" clip-path="url(#pad16a2d8d4)" style="fill: #1f77b4"/>
   </g>
   <g id="patch_39">
    <path d="M 340.67208 307.584 
L 346.601843 307.584 
L 346.601843 281.061209 
L 340.67208 281.061209 
z
" clip-path="url(#pad16a2d8d4)" style="fill: #1f77b4"/>
   </g>
   <g id="patch_40">
    <path d="M 348.084284 307.584 
L 354.014047 307.584 
L 354.014047 292.849116 
L 348.084284 292.849116 
z
" clip-path="url(#pad16a2d8d4)" style="fill: #1f77b4"/>
   </g>
   <g id="patch_41">
    <path d="M 355.496488 307.584 
L 361.426252 307.584 
L 361.426252 295.796093 
L 355.496488 295.796093 
z
" clip-path="url(#pad16a2d8d4)" style="fill: #1f77b4"/>
   </g>
   <g id="patch_42">
    <path d="M 362.908692 307.584 
L 368.838456 307.584 
L 368.838456 304.637023 
L 362.908692 304.637023 
z
" clip-path="url(#pad16a2d8d4)" style="fill: #1f77b4"/>
   </g>
   <g id="patch_43">
    <path d="M 370.320897 307.584 
L 376.25066 307.584 
L 376.25066 298.74307 
L 370.320897 298.74307 
z
" clip-path="url(#pad16a2d8d4)" style="fill: #1f77b4"/>
   </g>
   <g id="patch_44">
    <path d="M 377.733101 307.584 
L 383.662864 307.584 
L 383.662864 304.637023 
L 377.733101 304.637023 
z
" clip-path="url(#pad16a2d8d4)" style="fill: #1f77b4"/>
   </g>
   <g id="patch_45">
    <path d="M 385.145305 307.584 
L 391.075068 307.584 
L 391.075068 304.637023 
L 385.145305 304.637023 
z
" clip-path="url(#pad16a2d8d4)" style="fill: #1f77b4"/>
   </g>
   <g id="patch_46">
    <path d="M 392.557509 307.584 
L 398.487273 307.584 
L 398.487273 304.637023 
L 392.557509 304.637023 
z
" clip-path="url(#pad16a2d8d4)" style="fill: #1f77b4"/>
   </g>
   <g id="matplotlib.axis_1">
    <g id="xtick_1">
     <g id="line2d_1">
      <defs>
       <path id="ma74611d8ae" d="M 0 0 
L 0 3.5 
" style="stroke: #000000; stroke-width: 0.8"/>
      </defs>
      <g>
       <use xlink:href="#ma74611d8ae" x="76.797609" y="307.584" style="stroke: #000000; stroke-width: 0.8"/>
      </g>
     </g>
     <g id="text_1">
      <!-- 0 -->
      <g transform="translate(73.616359 322.182437) scale(0.1 -0.1)">
       <defs>
        <path id="DejaVuSans-30" d="M 2034 4250 
Q 1547 4250 1301 3770 
Q 1056 3291 1056 2328 
Q 1056 1369 1301 889 
Q 1547 409 2034 409 
Q 2525 409 2770 889 
Q 3016 1369 3016 2328 
Q 3016 3291 2770 3770 
Q 2525 4250 2034 4250 
z
M 2034 4750 
Q 2819 4750 3233 4129 
Q 3647 3509 3647 2328 
Q 3647 1150 3233 529 
Q 2819 -91 2034 -91 
Q 1250 -91 836 529 
Q 422 1150 422 2328 
Q 422 3509 836 4129 
Q 1250 4750 2034 4750 
z
" transform="scale(0.015625)"/>
       </defs>
       <use xlink:href="#DejaVuSans-30"/>
      </g>
     </g>
    </g>
    <g id="xtick_2">
     <g id="line2d_2">
      <g>
       <use xlink:href="#ma74611d8ae" x="150.919651" y="307.584" style="stroke: #000000; stroke-width: 0.8"/>
      </g>
     </g>
     <g id="text_2">
      <!-- 10 -->
      <g transform="translate(144.557151 322.182437) scale(0.1 -0.1)">
       <defs>
        <path id="DejaVuSans-31" d="M 794 531 
L 1825 531 
L 1825 4091 
L 703 3866 
L 703 4441 
L 1819 4666 
L 2450 4666 
L 2450 531 
L 3481 531 
L 3481 0 
L 794 0 
L 794 531 
z
" transform="scale(0.015625)"/>
       </defs>
       <use xlink:href="#DejaVuSans-31"/>
       <use xlink:href="#DejaVuSans-30" x="63.623047"/>
      </g>
     </g>
    </g>
    <g id="xtick_3">
     <g id="line2d_3">
      <g>
       <use xlink:href="#ma74611d8ae" x="225.041694" y="307.584" style="stroke: #000000; stroke-width: 0.8"/>
      </g>
     </g>
     <g id="text_3">
      <!-- 20 -->
      <g transform="translate(218.679194 322.182437) scale(0.1 -0.1)">
       <defs>
        <path id="DejaVuSans-32" d="M 1228 531 
L 3431 531 
L 3431 0 
L 469 0 
L 469 531 
Q 828 903 1448 1529 
Q 2069 2156 2228 2338 
Q 2531 2678 2651 2914 
Q 2772 3150 2772 3378 
Q 2772 3750 2511 3984 
Q 2250 4219 1831 4219 
Q 1534 4219 1204 4116 
Q 875 4013 500 3803 
L 500 4441 
Q 881 4594 1212 4672 
Q 1544 4750 1819 4750 
Q 2544 4750 2975 4387 
Q 3406 4025 3406 3419 
Q 3406 3131 3298 2873 
Q 3191 2616 2906 2266 
Q 2828 2175 2409 1742 
Q 1991 1309 1228 531 
z
" transform="scale(0.015625)"/>
       </defs>
       <use xlink:href="#DejaVuSans-32"/>
       <use xlink:href="#DejaVuSans-30" x="63.623047"/>
      </g>
     </g>
    </g>
    <g id="xtick_4">
     <g id="line2d_4">
      <g>
       <use xlink:href="#ma74611d8ae" x="299.163736" y="307.584" style="stroke: #000000; stroke-width: 0.8"/>
      </g>
     </g>
     <g id="text_4">
      <!-- 30 -->
      <g transform="translate(292.801236 322.182437) scale(0.1 -0.1)">
       <defs>
        <path id="DejaVuSans-33" d="M 2597 2516 
Q 3050 2419 3304 2112 
Q 3559 1806 3559 1356 
Q 3559 666 3084 287 
Q 2609 -91 1734 -91 
Q 1441 -91 1130 -33 
Q 819 25 488 141 
L 488 750 
Q 750 597 1062 519 
Q 1375 441 1716 441 
Q 2309 441 2620 675 
Q 2931 909 2931 1356 
Q 2931 1769 2642 2001 
Q 2353 2234 1838 2234 
L 1294 2234 
L 1294 2753 
L 1863 2753 
Q 2328 2753 2575 2939 
Q 2822 3125 2822 3475 
Q 2822 3834 2567 4026 
Q 2313 4219 1838 4219 
Q 1578 4219 1281 4162 
Q 984 4106 628 3988 
L 628 4550 
Q 988 4650 1302 4700 
Q 1616 4750 1894 4750 
Q 2613 4750 3031 4423 
Q 3450 4097 3450 3541 
Q 3450 3153 3228 2886 
Q 3006 2619 2597 2516 
z
" transform="scale(0.015625)"/>
       </defs>
       <use xlink:href="#DejaVuSans-33"/>
       <use xlink:href="#DejaVuSans-30" x="63.623047"/>
      </g>
     </g>
    </g>
    <g id="xtick_5">
     <g id="line2d_5">
      <g>
       <use xlink:href="#ma74611d8ae" x="373.285778" y="307.584" style="stroke: #000000; stroke-width: 0.8"/>
      </g>
     </g>
     <g id="text_5">
      <!-- 40 -->
      <g transform="translate(366.923278 322.182437) scale(0.1 -0.1)">
       <defs>
        <path id="DejaVuSans-34" d="M 2419 4116 
L 825 1625 
L 2419 1625 
L 2419 4116 
z
M 2253 4666 
L 3047 4666 
L 3047 1625 
L 3713 1625 
L 3713 1100 
L 3047 1100 
L 3047 0 
L 2419 0 
L 2419 1100 
L 313 1100 
L 313 1709 
L 2253 4666 
z
" transform="scale(0.015625)"/>
       </defs>
       <use xlink:href="#DejaVuSans-34"/>
       <use xlink:href="#DejaVuSans-30" x="63.623047"/>
      </g>
     </g>
    </g>
    <g id="text_6">
     <!-- Размер бакета -->
     <g transform="translate(197.589687 336.030875) scale(0.1 -0.1)">
      <defs>
       <path id="DejaVuSans-420" d="M 1259 4147 
L 1259 2394 
L 2053 2394 
Q 2494 2394 2734 2622 
Q 2975 2850 2975 3272 
Q 2975 3691 2734 3919 
Q 2494 4147 2053 4147 
L 1259 4147 
z
M 628 4666 
L 2053 4666 
Q 2838 4666 3239 4311 
Q 3641 3956 3641 3272 
Q 3641 2581 3239 2228 
Q 2838 1875 2053 1875 
L 1259 1875 
L 1259 0 
L 628 0 
L 628 4666 
z
" transform="scale(0.015625)"/>
       <path id="DejaVuSans-430" d="M 2194 1759 
Q 1497 1759 1228 1600 
Q 959 1441 959 1056 
Q 959 750 1161 570 
Q 1363 391 1709 391 
Q 2188 391 2477 730 
Q 2766 1069 2766 1631 
L 2766 1759 
L 2194 1759 
z
M 3341 1997 
L 3341 0 
L 2766 0 
L 2766 531 
Q 2569 213 2275 61 
Q 1981 -91 1556 -91 
Q 1019 -91 701 211 
Q 384 513 384 1019 
Q 384 1609 779 1909 
Q 1175 2209 1959 2209 
L 2766 2209 
L 2766 2266 
Q 2766 2663 2505 2880 
Q 2244 3097 1772 3097 
Q 1472 3097 1187 3025 
Q 903 2953 641 2809 
L 641 3341 
Q 956 3463 1253 3523 
Q 1550 3584 1831 3584 
Q 2591 3584 2966 3190 
Q 3341 2797 3341 1997 
z
" transform="scale(0.015625)"/>
       <path id="DejaVuSans-437" d="M 2206 1888 
Q 2594 1813 2809 1584 
Q 3025 1356 3025 1019 
Q 3025 478 2622 193 
Q 2219 -91 1475 -91 
Q 1225 -91 961 -47 
Q 697 -3 416 84 
L 416 619 
Q 638 503 903 445 
Q 1169 388 1459 388 
Q 1931 388 2195 563 
Q 2459 738 2459 1019 
Q 2459 1294 2225 1461 
Q 1991 1628 1563 1628 
L 1100 1628 
L 1100 2103 
L 1584 2103 
Q 1947 2103 2158 2242 
Q 2369 2381 2369 2600 
Q 2369 2800 2151 2944 
Q 1934 3088 1563 3088 
Q 1341 3088 1089 3047 
Q 838 3006 534 2916 
L 534 3438 
Q 841 3513 1106 3550 
Q 1372 3588 1609 3588 
Q 2222 3588 2576 3342 
Q 2931 3097 2931 2656 
Q 2931 2366 2743 2164 
Q 2556 1963 2206 1888 
z
" transform="scale(0.015625)"/>
       <path id="DejaVuSans-43c" d="M 581 3500 
L 1422 3500 
L 2416 1156 
L 3413 3500 
L 4247 3500 
L 4247 0 
L 3669 0 
L 3669 2950 
L 2703 672 
L 2128 672 
L 1159 2950 
L 1159 0 
L 581 0 
L 581 3500 
z
" transform="scale(0.015625)"/>
       <path id="DejaVuSans-435" d="M 3597 1894 
L 3597 1613 
L 953 1613 
Q 991 1019 1311 708 
Q 1631 397 2203 397 
Q 2534 397 2845 478 
Q 3156 559 3463 722 
L 3463 178 
Q 3153 47 2828 -22 
Q 2503 -91 2169 -91 
Q 1331 -91 842 396 
Q 353 884 353 1716 
Q 353 2575 817 3079 
Q 1281 3584 2069 3584 
Q 2775 3584 3186 3129 
Q 3597 2675 3597 1894 
z
M 3022 2063 
Q 3016 2534 2758 2815 
Q 2500 3097 2075 3097 
Q 1594 3097 1305 2825 
Q 1016 2553 972 2059 
L 3022 2063 
z
" transform="scale(0.015625)"/>
       <path id="DejaVuSans-440" d="M 1159 525 
L 1159 -1331 
L 581 -1331 
L 581 3500 
L 1159 3500 
L 1159 2969 
Q 1341 3281 1617 3432 
Q 1894 3584 2278 3584 
Q 2916 3584 3314 3078 
Q 3713 2572 3713 1747 
Q 3713 922 3314 415 
Q 2916 -91 2278 -91 
Q 1894 -91 1617 61 
Q 1341 213 1159 525 
z
M 3116 1747 
Q 3116 2381 2855 2742 
Q 2594 3103 2138 3103 
Q 1681 3103 1420 2742 
Q 1159 2381 1159 1747 
Q 1159 1113 1420 752 
Q 1681 391 2138 391 
Q 2594 391 2855 752 
Q 3116 1113 3116 1747 
z
" transform="scale(0.015625)"/>
       <path id="DejaVuSans-20" transform="scale(0.015625)"/>
       <path id="DejaVuSans-431" d="M 1991 3584 
Q 2741 3584 3169 3096 
Q 3597 2609 3597 1747 
Q 3597 888 3169 398 
Q 2741 -91 1991 -91 
Q 1238 -91 822 384 
Q 406 859 384 1747 
L 366 2463 
Q 350 2834 350 2963 
Q 350 3463 531 3831 
Q 816 4409 1308 4659 
Q 1800 4909 2625 4916 
Q 3006 4919 3175 4972 
L 3334 4516 
Q 3181 4453 3041 4450 
L 2259 4397 
Q 1866 4369 1628 4231 
Q 1006 3866 947 3388 
L 925 3213 
Q 1331 3584 1991 3584 
z
M 1991 3097 
Q 1528 3097 1259 2736 
Q 991 2375 991 1747 
Q 991 1119 1258 758 
Q 1525 397 1991 397 
Q 2450 397 2719 759 
Q 2988 1122 2988 1747 
Q 2988 2369 2719 2733 
Q 2450 3097 1991 3097 
z
" transform="scale(0.015625)"/>
       <path id="DejaVuSans-43a" d="M 581 3500 
L 1153 3500 
L 1153 1856 
L 2775 3500 
L 3481 3500 
L 2144 2147 
L 3653 0 
L 3009 0 
L 1769 1766 
L 1153 1141 
L 1153 0 
L 581 0 
L 581 3500 
z
" transform="scale(0.015625)"/>
       <path id="DejaVuSans-442" d="M 188 3500 
L 3541 3500 
L 3541 3041 
L 2147 3041 
L 2147 0 
L 1581 0 
L 1581 3041 
L 188 3041 
L 188 3500 
z
" transform="scale(0.015625)"/>
      </defs>
      <use xlink:href="#DejaVuSans-420"/>
      <use xlink:href="#DejaVuSans-430" x="60.302734"/>
      <use xlink:href="#DejaVuSans-437" x="121.582031"/>
      <use xlink:href="#DejaVuSans-43c" x="174.755859"/>
      <use xlink:href="#DejaVuSans-435" x="250.195312"/>
      <use xlink:href="#DejaVuSans-440" x="311.71875"/>
      <use xlink:href="#DejaVuSans-20" x="375.195312"/>
      <use xlink:href="#DejaVuSans-431" x="406.982422"/>
      <use xlink:href="#DejaVuSans-430" x="468.652344"/>
      <use xlink:href="#DejaVuSans-43a" x="529.931641"/>
      <use xlink:href="#DejaVuSans-435" x="590.332031"/>
      <use xlink:href="#DejaVuSans-442" x="651.855469"/>
      <use xlink:href="#DejaVuSans-430" x="710.107422"/>
     </g>
    </g>
   </g>
   <g id="matplotlib.axis_2">
    <g id="ytick_1">
     <g id="line2d_6">
      <defs>
       <path id="ma6ffac7345" d="M 0 0 
L -3.5 0 
" style="stroke: #000000; stroke-width: 0.8"/>
      </defs>
      <g>
       <use xlink:href="#ma6ffac7345" x="57.6" y="307.584" style="stroke: #000000; stroke-width: 0.8"/>
      </g>
     </g>
     <g id="text_7">
      <!-- 0 -->
      <g transform="translate(44.2375 311.383219) scale(0.1 -0.1)">
       <use xlink:href="#DejaVuSans-30"/>
      </g>
     </g>
    </g>
    <g id="ytick_2">
     <g id="line2d_7">
      <g>
       <use xlink:href="#ma6ffac7345" x="57.6" y="248.644465" style="stroke: #000000; stroke-width: 0.8"/>
      </g>
     </g>
     <g id="text_8">
      <!-- 20 -->
      <g transform="translate(37.875 252.443684) scale(0.1 -0.1)">
       <use xlink:href="#DejaVuSans-32"/>
       <use xlink:href="#DejaVuSans-30" x="63.623047"/>
      </g>
     </g>
    </g>
    <g id="ytick_3">
     <g id="line2d_8">
      <g>
       <use xlink:href="#ma6ffac7345" x="57.6" y="189.70493" style="stroke: #000000; stroke-width: 0.8"/>
      </g>
     </g>
     <g id="text_9">
      <!-- 40 -->
      <g transform="translate(37.875 193.504149) scale(0.1 -0.1)">
       <use xlink:href="#DejaVuSans-34"/>
       <use xlink:href="#DejaVuSans-30" x="63.623047"/>
      </g>
     </g>
    </g>
    <g id="ytick_4">
     <g id="line2d_9">
      <g>
       <use xlink:href="#ma6ffac7345" x="57.6" y="130.765395" style="stroke: #000000; stroke-width: 0.8"/>
      </g>
     </g>
     <g id="text_10">
      <!-- 60 -->
      <g transform="translate(37.875 134.564614) scale(0.1 -0.1)">
       <defs>
        <path id="DejaVuSans-36" d="M 2113 2584 
Q 1688 2584 1439 2293 
Q 1191 2003 1191 1497 
Q 1191 994 1439 701 
Q 1688 409 2113 409 
Q 2538 409 2786 701 
Q 3034 994 3034 1497 
Q 3034 2003 2786 2293 
Q 2538 2584 2113 2584 
z
M 3366 4563 
L 3366 3988 
Q 3128 4100 2886 4159 
Q 2644 4219 2406 4219 
Q 1781 4219 1451 3797 
Q 1122 3375 1075 2522 
Q 1259 2794 1537 2939 
Q 1816 3084 2150 3084 
Q 2853 3084 3261 2657 
Q 3669 2231 3669 1497 
Q 3669 778 3244 343 
Q 2819 -91 2113 -91 
Q 1303 -91 875 529 
Q 447 1150 447 2328 
Q 447 3434 972 4092 
Q 1497 4750 2381 4750 
Q 2619 4750 2861 4703 
Q 3103 4656 3366 4563 
z
" transform="scale(0.015625)"/>
       </defs>
       <use xlink:href="#DejaVuSans-36"/>
       <use xlink:href="#DejaVuSans-30" x="63.623047"/>
      </g>
     </g>
    </g>
    <g id="ytick_5">
     <g id="line2d_10">
      <g>
       <use xlink:href="#ma6ffac7345" x="57.6" y="71.82586" style="stroke: #000000; stroke-width: 0.8"/>
      </g>
     </g>
     <g id="text_11">
      <!-- 80 -->
      <g transform="translate(37.875 75.625079) scale(0.1 -0.1)">
       <defs>
        <path id="DejaVuSans-38" d="M 2034 2216 
Q 1584 2216 1326 1975 
Q 1069 1734 1069 1313 
Q 1069 891 1326 650 
Q 1584 409 2034 409 
Q 2484 409 2743 651 
Q 3003 894 3003 1313 
Q 3003 1734 2745 1975 
Q 2488 2216 2034 2216 
z
M 1403 2484 
Q 997 2584 770 2862 
Q 544 3141 544 3541 
Q 544 4100 942 4425 
Q 1341 4750 2034 4750 
Q 2731 4750 3128 4425 
Q 3525 4100 3525 3541 
Q 3525 3141 3298 2862 
Q 3072 2584 2669 2484 
Q 3125 2378 3379 2068 
Q 3634 1759 3634 1313 
Q 3634 634 3220 271 
Q 2806 -91 2034 -91 
Q 1263 -91 848 271 
Q 434 634 434 1313 
Q 434 1759 690 2068 
Q 947 2378 1403 2484 
z
M 1172 3481 
Q 1172 3119 1398 2916 
Q 1625 2713 2034 2713 
Q 2441 2713 2670 2916 
Q 2900 3119 2900 3481 
Q 2900 3844 2670 4047 
Q 2441 4250 2034 4250 
Q 1625 4250 1398 4047 
Q 1172 3844 1172 3481 
z
" transform="scale(0.015625)"/>
       </defs>
       <use xlink:href="#DejaVuSans-38"/>
       <use xlink:href="#DejaVuSans-30" x="63.623047"/>
      </g>
     </g>
    </g>
    <g id="text_12">
     <!-- Количество бакетов -->
     <g transform="translate(31.795312 228.033469) rotate(-90) scale(0.1 -0.1)">
      <defs>
       <path id="DejaVuSans-41a" d="M 628 4666 
L 1259 4666 
L 1259 2359 
L 3516 4666 
L 4325 4666 
L 2522 2822 
L 4419 0 
L 3731 0 
L 2113 2403 
L 1259 1531 
L 1259 0 
L 628 0 
L 628 4666 
z
" transform="scale(0.015625)"/>
       <path id="DejaVuSans-43e" d="M 1959 3097 
Q 1497 3097 1228 2736 
Q 959 2375 959 1747 
Q 959 1119 1226 758 
Q 1494 397 1959 397 
Q 2419 397 2687 759 
Q 2956 1122 2956 1747 
Q 2956 2369 2687 2733 
Q 2419 3097 1959 3097 
z
M 1959 3584 
Q 2709 3584 3137 3096 
Q 3566 2609 3566 1747 
Q 3566 888 3137 398 
Q 2709 -91 1959 -91 
Q 1206 -91 779 398 
Q 353 888 353 1747 
Q 353 2609 779 3096 
Q 1206 3584 1959 3584 
z
" transform="scale(0.015625)"/>
       <path id="DejaVuSans-43b" d="M 238 0 
L 238 478 
Q 806 566 981 959 
Q 1194 1513 1194 2928 
L 1194 3500 
L 3559 3500 
L 3559 0 
L 2984 0 
L 2984 3041 
L 1769 3041 
L 1769 2694 
Q 1769 1344 1494 738 
Q 1200 91 238 0 
z
" transform="scale(0.015625)"/>
       <path id="DejaVuSans-438" d="M 3578 3500 
L 3578 0 
L 3006 0 
L 3006 2809 
L 1319 0 
L 581 0 
L 581 3500 
L 1153 3500 
L 1153 697 
L 2838 3500 
L 3578 3500 
z
" transform="scale(0.015625)"/>
       <path id="DejaVuSans-447" d="M 2625 0 
L 2625 1472 
L 1553 1472 
Q 1075 1472 756 1769 
Q 469 2038 469 2613 
L 469 3500 
L 1044 3500 
L 1044 2666 
Q 1044 2300 1206 2116 
Q 1372 1931 1697 1931 
L 2625 1931 
L 2625 3500 
L 3200 3500 
L 3200 0 
L 2625 0 
z
" transform="scale(0.015625)"/>
       <path id="DejaVuSans-441" d="M 3122 3366 
L 3122 2828 
Q 2878 2963 2633 3030 
Q 2388 3097 2138 3097 
Q 1578 3097 1268 2742 
Q 959 2388 959 1747 
Q 959 1106 1268 751 
Q 1578 397 2138 397 
Q 2388 397 2633 464 
Q 2878 531 3122 666 
L 3122 134 
Q 2881 22 2623 -34 
Q 2366 -91 2075 -91 
Q 1284 -91 818 406 
Q 353 903 353 1747 
Q 353 2603 823 3093 
Q 1294 3584 2113 3584 
Q 2378 3584 2631 3529 
Q 2884 3475 3122 3366 
z
" transform="scale(0.015625)"/>
       <path id="DejaVuSans-432" d="M 1156 1613 
L 1156 459 
L 1975 459 
Q 2369 459 2575 607 
Q 2781 756 2781 1038 
Q 2781 1319 2575 1466 
Q 2369 1613 1975 1613 
L 1156 1613 
z
M 1156 3041 
L 1156 2072 
L 1913 2072 
Q 2238 2072 2444 2201 
Q 2650 2331 2650 2563 
Q 2650 2794 2444 2917 
Q 2238 3041 1913 3041 
L 1156 3041 
z
M 581 3500 
L 1950 3500 
Q 2566 3500 2897 3275 
Q 3228 3050 3228 2634 
Q 3228 2313 3059 2123 
Q 2891 1934 2559 1888 
Q 2956 1813 3175 1575 
Q 3394 1338 3394 981 
Q 3394 513 3033 256 
Q 2672 0 2003 0 
L 581 0 
L 581 3500 
z
" transform="scale(0.015625)"/>
      </defs>
      <use xlink:href="#DejaVuSans-41a"/>
      <use xlink:href="#DejaVuSans-43e" x="70.996094"/>
      <use xlink:href="#DejaVuSans-43b" x="132.177734"/>
      <use xlink:href="#DejaVuSans-438" x="196.09375"/>
      <use xlink:href="#DejaVuSans-447" x="261.083984"/>
      <use xlink:href="#DejaVuSans-435" x="320.166016"/>
      <use xlink:href="#DejaVuSans-441" x="381.689453"/>
      <use xlink:href="#DejaVuSans-442" x="436.669922"/>
      <use xlink:href="#DejaVuSans-432" x="494.921875"/>
      <use xlink:href="#DejaVuSans-43e" x="553.857422"/>
      <use xlink:href="#DejaVuSans-20" x="615.039062"/>
      <use xlink:href="#DejaVuSans-431" x="646.826172"/>
      <use xlink:href="#DejaVuSans-430" x="708.496094"/>
      <use xlink:href="#DejaVuSans-43a" x="769.775391"/>
      <use xlink:href="#DejaVuSans-435" x="830.175781"/>
      <use xlink:href="#DejaVuSans-442" x="891.699219"/>
      <use xlink:href="#DejaVuSans-43e" x="949.951172"/>
      <use xlink:href="#DejaVuSans-432" x="1011.132812"/>
     </g>
    </g>
   </g>
   <g id="patch_47">
    <path d="M 57.6 307.584 
L 57.6 41.472 
" style="fill: none; stroke: #000000; stroke-width: 0.8; stroke-linejoin: miter; stroke-linecap: square"/>
   </g>
   <g id="patch_48">
    <path d="M 414.72 307.584 
L 414.72 41.472 
" style="fill: none; stroke: #000000; stroke-width: 0.8; stroke-linejoin: miter; stroke-linecap: square"/>
   </g>
   <g id="patch_49">
    <path d="M 57.6 307.584 
L 414.72 307.584 
" style="fill: none; stroke: #000000; stroke-width: 0.8; stroke-linejoin: miter; stroke-linecap: square"/>
   </g>
   <g id="patch_50">
    <path d="M 57.6 41.472 
L 414.72 41.472 
" style="fill: none; stroke: #000000; stroke-width: 0.8; stroke-linejoin: miter; stroke-linecap: square"/>
   </g>
   <g id="text_13">
    <!-- Гистограмма распределения бакетов по их размеру -->
    <g transform="translate(69.5325 35.472) scale(0.12 -0.12)">
     <defs>
      <path id="DejaVuSans-413" d="M 628 0 
L 628 4666 
L 3531 4666 
L 3531 4134 
L 1259 4134 
L 1259 0 
L 628 0 
z
" transform="scale(0.015625)"/>
      <path id="DejaVuSans-433" d="M 581 0 
L 581 3500 
L 3050 3500 
L 3050 3041 
L 1159 3041 
L 1159 0 
L 581 0 
z
" transform="scale(0.015625)"/>
      <path id="DejaVuSans-43f" d="M 3603 3500 
L 3603 0 
L 3025 0 
L 3025 3041 
L 1159 3041 
L 1159 0 
L 581 0 
L 581 3500 
L 3603 3500 
z
" transform="scale(0.015625)"/>
      <path id="DejaVuSans-434" d="M 1384 459 
L 3053 459 
L 3053 3041 
L 1844 3041 
L 1844 2603 
Q 1844 1316 1475 628 
L 1384 459 
z
M 550 459 
Q 834 584 959 850 
Q 1266 1509 1266 2838 
L 1266 3500 
L 3631 3500 
L 3631 459 
L 4091 459 
L 4091 -884 
L 3631 -884 
L 3631 0 
L 794 0 
L 794 -884 
L 334 -884 
L 334 459 
L 550 459 
z
" transform="scale(0.015625)"/>
      <path id="DejaVuSans-43d" d="M 581 3500 
L 1159 3500 
L 1159 2072 
L 3025 2072 
L 3025 3500 
L 3603 3500 
L 3603 0 
L 3025 0 
L 3025 1613 
L 1159 1613 
L 1159 0 
L 581 0 
L 581 3500 
z
" transform="scale(0.015625)"/>
      <path id="DejaVuSans-44f" d="M 1181 2491 
Q 1181 2231 1381 2084 
Q 1581 1938 1953 1938 
L 2728 1938 
L 2728 3041 
L 1953 3041 
Q 1581 3041 1381 2897 
Q 1181 2753 1181 2491 
z
M 363 0 
L 1431 1534 
Q 1069 1616 828 1830 
Q 588 2044 588 2491 
Q 588 2997 923 3248 
Q 1259 3500 1938 3500 
L 3306 3500 
L 3306 0 
L 2728 0 
L 2728 1478 
L 2013 1478 
L 981 0 
L 363 0 
z
" transform="scale(0.015625)"/>
      <path id="DejaVuSans-445" d="M 3513 3500 
L 2247 1797 
L 3578 0 
L 2900 0 
L 1881 1375 
L 863 0 
L 184 0 
L 1544 1831 
L 300 3500 
L 978 3500 
L 1906 2253 
L 2834 3500 
L 3513 3500 
z
" transform="scale(0.015625)"/>
      <path id="DejaVuSans-443" d="M 2059 -325 
Q 1816 -950 1584 -1140 
Q 1353 -1331 966 -1331 
L 506 -1331 
L 506 -850 
L 844 -850 
Q 1081 -850 1212 -737 
Q 1344 -625 1503 -206 
L 1606 56 
L 191 3500 
L 800 3500 
L 1894 763 
L 2988 3500 
L 3597 3500 
L 2059 -325 
z
" transform="scale(0.015625)"/>
     </defs>
     <use xlink:href="#DejaVuSans-413"/>
     <use xlink:href="#DejaVuSans-438" x="60.986328"/>
     <use xlink:href="#DejaVuSans-441" x="125.976562"/>
     <use xlink:href="#DejaVuSans-442" x="180.957031"/>
     <use xlink:href="#DejaVuSans-43e" x="239.208984"/>
     <use xlink:href="#DejaVuSans-433" x="300.390625"/>
     <use xlink:href="#DejaVuSans-440" x="352.929688"/>
     <use xlink:href="#DejaVuSans-430" x="416.40625"/>
     <use xlink:href="#DejaVuSans-43c" x="477.685547"/>
     <use xlink:href="#DejaVuSans-43c" x="553.125"/>
     <use xlink:href="#DejaVuSans-430" x="628.564453"/>
     <use xlink:href="#DejaVuSans-20" x="689.84375"/>
     <use xlink:href="#DejaVuSans-440" x="721.630859"/>
     <use xlink:href="#DejaVuSans-430" x="785.107422"/>
     <use xlink:href="#DejaVuSans-441" x="846.386719"/>
     <use xlink:href="#DejaVuSans-43f" x="901.367188"/>
     <use xlink:href="#DejaVuSans-440" x="966.748047"/>
     <use xlink:href="#DejaVuSans-435" x="1030.224609"/>
     <use xlink:href="#DejaVuSans-434" x="1091.748047"/>
     <use xlink:href="#DejaVuSans-435" x="1160.888672"/>
     <use xlink:href="#DejaVuSans-43b" x="1222.412109"/>
     <use xlink:href="#DejaVuSans-435" x="1286.328125"/>
     <use xlink:href="#DejaVuSans-43d" x="1347.851562"/>
     <use xlink:href="#DejaVuSans-438" x="1413.232422"/>
     <use xlink:href="#DejaVuSans-44f" x="1478.222656"/>
     <use xlink:href="#DejaVuSans-20" x="1538.378906"/>
     <use xlink:href="#DejaVuSans-431" x="1570.166016"/>
     <use xlink:href="#DejaVuSans-430" x="1631.835938"/>
     <use xlink:href="#DejaVuSans-43a" x="1693.115234"/>
     <use xlink:href="#DejaVuSans-435" x="1753.515625"/>
     <use xlink:href="#DejaVuSans-442" x="1815.039062"/>
     <use xlink:href="#DejaVuSans-43e" x="1873.291016"/>
     <use xlink:href="#DejaVuSans-432" x="1934.472656"/>
     <use xlink:href="#DejaVuSans-20" x="1993.408203"/>
     <use xlink:href="#DejaVuSans-43f" x="2025.195312"/>
     <use xlink:href="#DejaVuSans-43e" x="2090.576172"/>
     <use xlink:href="#DejaVuSans-20" x="2151.757812"/>
     <use xlink:href="#DejaVuSans-438" x="2183.544922"/>
     <use xlink:href="#DejaVuSans-445" x="2248.535156"/>
     <use xlink:href="#DejaVuSans-20" x="2307.714844"/>
     <use xlink:href="#DejaVuSans-440" x="2339.501953"/>
     <use xlink:href="#DejaVuSans-430" x="2402.978516"/>
     <use xlink:href="#DejaVuSans-437" x="2464.257812"/>
     <use xlink:href="#DejaVuSans-43c" x="2517.431641"/>
     <use xlink:href="#DejaVuSans-435" x="2592.871094"/>
     <use xlink:href="#DejaVuSans-440" x="2654.394531"/>
     <use xlink:href="#DejaVuSans-443" x="2717.871094"/>
    </g>
   </g>
   <g id="legend_1">
    <g id="patch_51">
     <path d="M 353.8825 64.150125 
L 407.72 64.150125 
Q 409.72 64.150125 409.72 62.150125 
L 409.72 48.472 
Q 409.72 46.472 407.72 46.472 
L 353.8825 46.472 
Q 351.8825 46.472 351.8825 48.472 
L 351.8825 62.150125 
Q 351.8825 64.150125 353.8825 64.150125 
z
" style="fill: #ffffff; opacity: 0.8; stroke: #cccccc; stroke-linejoin: miter"/>
    </g>
    <g id="patch_52">
     <path d="M 355.8825 58.070438 
L 375.8825 58.070438 
L 375.8825 51.070438 
L 355.8825 51.070438 
z
" style="fill: #1f77b4"/>
    </g>
    <g id="text_14">
     <!-- djb2 -->
     <g transform="translate(383.8825 58.070438) scale(0.1 -0.1)">
      <defs>
       <path id="DejaVuSans-64" d="M 2906 2969 
L 2906 4863 
L 3481 4863 
L 3481 0 
L 2906 0 
L 2906 525 
Q 2725 213 2448 61 
Q 2172 -91 1784 -91 
Q 1150 -91 751 415 
Q 353 922 353 1747 
Q 353 2572 751 3078 
Q 1150 3584 1784 3584 
Q 2172 3584 2448 3432 
Q 2725 3281 2906 2969 
z
M 947 1747 
Q 947 1113 1208 752 
Q 1469 391 1925 391 
Q 2381 391 2643 752 
Q 2906 1113 2906 1747 
Q 2906 2381 2643 2742 
Q 2381 3103 1925 3103 
Q 1469 3103 1208 2742 
Q 947 2381 947 1747 
z
" transform="scale(0.015625)"/>
       <path id="DejaVuSans-6a" d="M 603 3500 
L 1178 3500 
L 1178 -63 
Q 1178 -731 923 -1031 
Q 669 -1331 103 -1331 
L -116 -1331 
L -116 -844 
L 38 -844 
Q 366 -844 484 -692 
Q 603 -541 603 -63 
L 603 3500 
z
M 603 4863 
L 1178 4863 
L 1178 4134 
L 603 4134 
L 603 4863 
z
" transform="scale(0.015625)"/>
       <path id="DejaVuSans-62" d="M 3116 1747 
Q 3116 2381 2855 2742 
Q 2594 3103 2138 3103 
Q 1681 3103 1420 2742 
Q 1159 2381 1159 1747 
Q 1159 1113 1420 752 
Q 1681 391 2138 391 
Q 2594 391 2855 752 
Q 3116 1113 3116 1747 
z
M 1159 2969 
Q 1341 3281 1617 3432 
Q 1894 3584 2278 3584 
Q 2916 3584 3314 3078 
Q 3713 2572 3713 1747 
Q 3713 922 3314 415 
Q 2916 -91 2278 -91 
Q 1894 -91 1617 61 
Q 1341 213 1159 525 
L 1159 0 
L 581 0 
L 581 4863 
L 1159 4863 
L 1159 2969 
z
" transform="scale(0.015625)"/>
      </defs>
      <use xlink:href="#DejaVuSans-64"/>
      <use xlink:href="#DejaVuSans-6a" x="63.476562"/>
      <use xlink:href="#DejaVuSans-62" x="91.259766"/>
      <use xlink:href="#DejaVuSans-32" x="154.736328"/>
     </g>
    </g>
   </g>
  </g>
 </g>
 <defs>
  <clipPath id="pad16a2d8d4">
   <rect x="57.6" y="41.472" width="357.12" height="266.112"/>
  </clipPath>
 </defs>
</svg>
